<svg width="644" height="342" viewBox="0 0 644 342" fill="none" xmlns="http://www.w3.org/2000/svg">
<path d="M497.733 327.727C493.116 333.717 487.691 338.168 488.881 340.189C488.881 340.189 491.341 341.977 498.12 341.977C509.749 341.977 521.173 341.091 519.298 339.912C516.699 338.28 509.17 337.688 501.978 335.199C500.2 334.582 505.868 331.137 504.321 330.574C501.115 329.408 498.62 328.399 497.734 327.727H497.733Z" fill="#0F078E"/>
<path d="M617.533 339.846C617.533 339.846 619.061 341.99 624.923 341.99C634.977 341.99 645.455 340.624 643.833 339.604C641.586 338.194 623.967 334.516 623.967 334.516L620.016 329.608L613.317 333.317L617.535 339.847L617.533 339.846Z" fill="#0F078E"/>
<path d="M585.695 191.612C578.485 191.612 573.032 190.17 572.576 190.047C568.815 189.018 566.597 185.139 567.624 181.377C568.648 177.618 572.515 175.406 576.271 176.413C576.516 176.48 592.392 180.549 601.657 172.593C607.86 167.266 610.215 157.237 608.661 142.779L608.167 138.168L622.442 130.077C625.839 128.155 630.145 129.346 632.065 132.739C633.987 136.133 632.794 140.442 629.401 142.364L623.089 145.941C624.087 162.969 619.951 175.551 610.771 183.379C603.03 189.978 593.368 191.61 585.695 191.61V191.612Z" fill="#E5D9F6"/>
<path d="M610.107 152.447C609.838 162.719 607.111 170.149 601.935 174.59C591.771 183.319 574.361 178.869 574.063 178.789C569.937 177.674 565.693 180.112 564.569 184.235C563.443 188.364 565.877 192.629 570.005 193.757C570.505 193.889 576.498 196.883 584.409 196.601C614.445 195.534 632.573 169.614 632.907 154.504L610.107 152.449V152.447Z" fill="#D9D9F5"/>
<path d="M568.821 116.5C566.131 115.294 563.485 113.986 560.881 112.615C535.993 126.793 504.193 144.957 503.565 145.59C503.565 145.59 519.369 170.765 520.379 171.773C521.026 172.423 560.216 144.3 588.409 123.922C581.904 121.405 575.197 119.358 568.823 116.497L568.821 116.5Z" fill="#E5D9F6"/>
<path d="M569.215 115.786C575.732 118.661 582.579 120.749 589.205 123.353C604.726 112.132 616.725 103.399 616.725 103.399L590.195 95.9436C590.195 95.9436 577.429 103.194 561.701 112.152C564.168 113.439 566.668 114.662 569.215 115.787V115.786Z" fill="#E5D9F6"/>
<path d="M523.505 82.7505L539.124 125.052L569.657 136.261L530.981 65.5829L523.505 82.7505Z" fill="#0F078E"/>
<path d="M571.321 146.609H548.697L568.835 181.797L599.529 194.743L571.321 146.609Z" fill="#0F078E"/>
<path d="M529.643 75.4922L527.693 76.6361L522.398 158.723L564.09 134.273L529.644 75.4922H529.643ZM599.536 194.762L581.526 164.028L504.481 209.214L489.331 183.359L498.845 29.6452L533.469 9.34094L595.787 115.686L616.755 103.388L634.194 133.145L613.225 145.442L631.235 176.174L599.537 194.763L599.536 194.762Z" fill="#6C00FF"/>
<path d="M463.716 176.32L489.329 183.353L504.481 209.21L477.418 202.35L463.716 176.32Z" fill="#E5D9F6"/>
<path d="M463.716 176.308L489.329 183.342L498.843 29.6296L475.345 24.0032L463.716 176.308Z" fill="#E5D9F6"/>
<path d="M475.325 24.0002L498.823 29.6266L533.447 9.32239L509.65 2.40063L475.325 24.0002Z" fill="#6C00FF"/>
<path d="M526.848 237.558C526.848 237.558 530.613 278.179 530.613 292.408C530.613 292.408 501.045 315.462 493.806 327.52C496.916 329.888 503.061 333.03 507.088 332.909C526.814 314.063 548.468 300.614 548.468 300.614C548.468 300.614 557.811 273.51 560.718 250.56L526.849 237.56L526.848 237.558Z" fill="#0F078E"/>
<path d="M547.914 239.467C554.573 239.515 561.375 238.367 567.102 235.258C565.18 227.145 569.273 203.212 574.415 190.421C574.415 190.421 578.47 181.515 575.628 178.781C565.11 168.66 556.159 169.489 553.375 169.378C543.72 177.53 525.757 201.59 526.477 233.386C531.438 238.601 541.515 239.423 547.914 239.466V239.467Z" fill="#D9D9F5"/>
<path d="M613.141 334.461C616.99 333.39 620.682 331.61 623.049 328.46C611.632 309.936 569.767 241.896 567.5 236.572C567.441 236.433 567.39 236.274 567.335 236.12C561.188 239.436 553.85 240.604 546.74 240.331C540.544 240.092 531.577 239.225 526.52 234.637C526.532 234.965 526.535 235.288 526.549 235.62C527.423 253.38 586.316 312.597 609.49 335.239C610.766 335.052 612.005 334.774 613.141 334.461Z" fill="#6C00FF"/>
<path d="M491.576 221.108C489.94 221.108 488.369 220.874 486.87 220.368C483.757 219.328 479.637 216.703 477.692 210.136C476.585 206.396 478.716 202.463 482.454 201.358C486.193 200.247 490.12 202.384 491.227 206.122C491.359 206.558 491.481 206.834 491.567 206.996C492.32 207.03 495.116 206.785 501.921 202.784C508.001 199.211 515.192 193.89 522.148 188.743C533.899 180.044 544.999 171.831 554.165 168.928C557.88 167.751 561.848 169.816 563.024 173.531C564.201 177.25 562.141 181.219 558.425 182.393C551.502 184.585 540.847 192.473 530.544 200.096C515.458 211.261 502.156 221.107 491.579 221.107L491.576 221.108Z" fill="#E5D9F6"/>
<path d="M504.784 215.797C503.918 211.637 503.014 207.047 500.382 203.631C494.691 206.785 492.26 206.996 491.567 206.967C491.481 206.805 491.359 206.529 491.227 206.093C490.121 202.355 486.194 200.218 482.454 201.329C478.716 202.434 476.585 206.367 477.692 210.107C479.637 216.674 483.757 219.298 486.87 220.339C488.369 220.844 489.942 221.079 491.577 221.079C495.676 221.079 500.189 219.594 505.056 217.128C504.963 216.686 504.876 216.242 504.783 215.798L504.784 215.797Z" fill="#E5D9F6"/>
<path d="M563.041 173.532C561.864 169.816 557.896 167.751 554.181 168.928C545.014 171.831 533.915 180.044 522.165 188.743C515.208 193.89 508.017 199.212 501.937 202.784C501.661 202.95 501.398 203.093 501.132 203.245C503.771 206.733 508.341 223.938 508.422 224.331C515.906 220.413 551.811 193.069 559.595 184.818C562.271 181.981 564.216 177.249 563.04 173.53L563.041 173.532Z" fill="#D9D9F5"/>
<path d="M481.609 215.35C481.192 215.35 480.769 215.225 480.404 214.965C474.865 211.003 471.976 203.382 471.855 203.061C471.457 201.987 471.999 200.79 473.075 200.388C474.148 199.991 475.343 200.531 475.745 201.606C475.77 201.674 478.324 208.374 482.818 211.585C483.752 212.252 483.967 213.548 483.301 214.478C482.897 215.048 482.258 215.351 481.609 215.351V215.35Z" fill="#E5D9F6"/>
<path d="M481.595 210.296C480.945 210.296 480.302 209.989 479.898 209.415C477.25 205.66 475.126 196.736 474.893 195.735C474.635 194.619 475.328 193.5 476.444 193.242C477.565 192.975 478.678 193.678 478.938 194.794C479.524 197.308 481.443 204.398 483.289 207.019C483.953 207.957 483.729 209.254 482.792 209.914C482.428 210.172 482.01 210.296 481.595 210.296Z" fill="#E5D9F6"/>
<path d="M484.468 209.168C483.649 209.168 482.872 208.68 482.544 207.874C480.642 203.209 479.901 193.43 479.869 193.014C479.784 191.872 480.642 190.878 481.785 190.79C482.934 190.696 483.924 191.565 484.01 192.707C484.205 195.35 485.015 202.94 486.387 206.305C486.82 207.368 486.311 208.581 485.25 209.013C484.993 209.118 484.728 209.168 484.467 209.168H484.468Z" fill="#E5D9F6"/>
<path d="M487.574 208.17C486.649 208.17 485.807 207.55 485.564 206.613C484.258 201.539 485.447 196.365 485.501 196.147C485.763 195.031 486.887 194.342 487.997 194.6C489.112 194.865 489.804 195.982 489.543 197.099C489.52 197.198 488.549 201.546 489.585 205.575C489.873 206.689 489.201 207.822 488.092 208.105C487.92 208.151 487.744 208.169 487.574 208.169V208.17Z" fill="#E5D9F6"/>
<path d="M571.063 184.813C570.111 184.813 569.145 184.606 568.227 184.174C564.911 182.606 563.493 178.642 565.063 175.327C566.7 171.855 569.66 168.302 569.992 167.907C572.363 165.102 576.55 164.75 579.355 167.118C582.157 169.481 582.515 173.67 580.155 176.476C579.323 177.463 577.751 179.569 577.075 181.006C575.941 183.407 573.552 184.813 571.064 184.813H571.063Z" fill="#E5D9F6"/>
<path d="M572.011 181.392C572.797 182.261 573.621 183.079 574.479 183.858C575.567 183.205 576.482 182.239 577.065 181.006C577.741 179.569 579.314 177.463 580.145 176.476C582.506 173.67 582.148 169.481 579.345 167.118C576.541 164.75 572.353 165.102 569.983 167.907C569.853 168.066 569.311 168.713 568.605 169.651C568.667 173.839 569.105 178.189 572.011 181.392Z" fill="#E5D9F6"/>
<path d="M593.818 174.043C591.175 180.457 583.834 183.517 577.421 180.872C571.007 178.225 567.95 170.882 570.594 164.463L573.918 156.401C576.564 149.983 583.907 146.926 590.32 149.572C596.732 152.216 599.788 159.562 597.142 165.976L593.818 174.043Z" fill="#E5D9F6"/>
<path d="M572.015 163.527C570.994 167.845 564.795 166.461 562.467 164.206C559.259 161.103 557.344 152.32 564.453 152.789C559.332 145.058 576.697 136.672 578.52 145.607C579.877 143.301 581.265 141.232 584.284 141.036C586.458 140.898 590.268 142.58 589.952 145.246C593.182 142.693 597.886 142.89 601.08 145.471C602.101 146.297 603.944 148.136 603.023 149.475C602.515 150.215 599.898 150.442 599.024 150.708C600.534 150.024 606.723 151.404 605.503 153.978C604.938 155.177 601.908 154.1 601.023 153.844C601.023 153.844 601.013 154.127 601.023 154.115C604.328 155.927 605.689 157.764 605.292 161.881C605.109 163.773 604.215 167.348 601.964 167.618C600.811 167.755 599.482 167.028 599.499 165.82C602.263 168.577 598.351 175.957 594.864 172.317C593.498 170.89 594.157 168.497 595.453 167.265C593.39 166.078 588.916 159.805 592.099 158.125C590.611 158.16 583.722 155.823 585.913 153.84C586.492 156.138 583.646 159.117 581.381 157.934C582.79 161 578.648 163.29 576.102 163.398C577.661 165.359 572.857 167.687 571.391 164.843L572.014 163.527H572.015Z" fill="#6C00FF"/>
<path d="M336.01 138.466C336.01 138.466 331.978 123.027 351.979 119.36L350.455 137.911L336.011 138.466H336.01Z" fill="#6C00FF"/>
<path d="M255.88 177.458C251.5 177.458 247.428 176.57 243.675 174.793C225.508 166.205 223.488 140.403 223.413 139.31C223.139 135.418 226.069 132.042 229.959 131.769C233.839 131.499 237.21 134.418 237.494 138.301C237.889 143.493 240.855 157.865 249.736 162.04C257.072 165.485 268.448 161.979 282.64 151.895C285.818 149.635 290.227 150.386 292.482 153.564C294.74 156.747 293.992 161.155 290.813 163.413C277.65 172.762 265.954 177.459 255.88 177.459V177.458Z" fill="#D9D9F5"/>
<path d="M293.436 190.686C295.399 185.533 297.219 180.299 299.338 175.204C297.911 175.091 296.468 174.907 295.005 174.63C288.156 173.322 282.359 170.536 277.613 166.27C272.859 162.007 269.193 156.601 266.607 150.064C264.02 143.522 262.514 136.091 262.094 127.755C261.668 119.426 262.341 110.631 264.109 101.371C265.912 91.9295 268.538 83.4639 271.983 75.9642C275.428 68.4672 279.557 62.1553 284.375 57.0311C289.188 51.9069 294.588 48.2387 300.575 46.024C306.559 43.812 312.977 43.3536 319.823 44.6635C325.246 45.6998 330.022 47.7444 334.177 50.7642C336.178 46.7693 338.329 42.8474 340.376 38.9362C342.796 34.3102 345.042 29.5965 347.192 24.8443C348.111 22.8102 348.908 20.7177 349.742 18.6426C342.801 14.6848 335.024 11.8762 326.401 10.2288C314.186 7.89456 302.685 8.33567 291.908 11.5534C281.123 14.7712 271.417 20.1571 262.781 27.7179C254.143 35.2787 246.812 44.7712 240.799 56.1874C234.779 67.6077 230.431 80.3538 227.746 94.4218C225.056 108.495 224.401 121.948 225.792 134.779C227.176 147.612 230.492 159.134 235.736 169.348C240.978 179.561 248.016 188.152 256.856 195.117C265.085 201.603 274.78 206.08 285.938 208.552C288.582 202.655 291.137 196.732 293.436 190.687V190.686Z" fill="#E5D9F6"/>
<path d="M389.048 84.5242C387.659 71.6904 384.347 60.1652 379.105 49.954C373.861 39.7414 366.821 31.1523 357.986 24.1854C355.606 22.3108 353.102 20.6102 350.479 19.0704C349.65 21.1443 348.861 23.2354 347.926 25.2601C345.732 29.9964 343.538 34.7261 341.111 39.3508C339.042 43.2859 336.873 47.2358 334.86 51.2599C335.575 51.806 336.273 52.3746 336.95 52.9791C341.696 57.2477 345.411 62.6576 348.091 69.2126C350.771 75.7691 352.333 83.1705 352.774 91.4088C353.212 99.6498 352.532 108.489 350.73 117.931C348.962 127.191 346.345 135.615 342.884 143.2C339.421 150.791 335.233 157.139 330.326 162.245C325.417 167.351 319.972 171.017 313.987 173.225C309.575 174.858 304.98 175.535 300.204 175.272C297.855 180.847 295.877 186.589 293.736 192.231C291.617 197.815 289.236 203.288 286.783 208.735C287.334 208.849 287.884 208.966 288.441 209.072C300.653 211.408 312.149 210.964 322.931 207.746C333.711 204.531 343.42 199.144 352.058 191.584C360.698 184.022 368.02 174.532 374.038 163.112C380.056 151.697 384.409 138.951 387.096 124.879C389.781 110.811 390.431 97.3554 389.047 84.5229L389.048 84.5242Z" fill="#0F078E"/>
<path d="M316.569 181.963C323.231 183.234 329.552 182.765 335.54 180.549C341.524 178.341 346.97 174.674 351.879 169.569C356.783 164.462 360.972 158.115 364.437 150.524C367.901 142.939 370.517 134.514 372.283 125.255C374.085 115.812 374.765 106.975 374.324 98.7318C373.885 90.4934 372.322 83.0934 369.644 76.537C366.963 69.9793 363.246 64.5694 358.502 60.3034C353.75 56.0388 348.047 53.2675 341.386 51.996C334.536 50.6861 328.117 51.1431 322.134 53.3538C316.145 55.5698 310.746 59.2367 305.932 64.3622C301.117 69.4864 296.986 75.797 293.543 83.2941C290.095 90.7924 287.472 99.2593 285.67 108.703C283.901 117.964 283.228 126.758 283.653 135.086C284.075 143.419 285.578 150.852 288.168 157.393C290.755 163.93 294.421 169.338 299.172 173.6C303.918 177.868 309.717 180.654 316.567 181.962L316.569 181.963ZM309.991 216.398C297.777 214.062 287.25 209.409 278.415 202.447C269.574 195.484 262.539 186.891 257.298 176.678C252.052 166.465 248.737 154.943 247.352 142.108C245.963 129.278 246.619 115.825 249.305 101.754C251.991 87.6862 256.339 74.9401 262.36 63.5199C268.375 52.1036 275.703 42.6098 284.342 35.0503C292.98 27.4895 302.684 22.1023 313.468 18.8846C324.247 15.6681 335.744 15.2257 347.96 17.56C360.173 19.8942 370.696 24.5455 379.534 31.5097C388.371 38.4793 395.412 47.0644 400.656 57.2783C405.899 67.4909 409.208 79.0174 410.599 91.8486C411.983 104.684 411.335 118.137 408.647 132.205C405.959 146.277 401.606 159.021 395.589 170.439C389.57 181.859 382.246 191.349 373.608 198.909C364.972 206.471 355.261 211.858 344.482 215.073C333.698 218.287 322.204 218.735 309.989 216.399L309.991 216.398Z" fill="#6C00FF"/>
<path d="M434.526 112.712L435.065 138.672C435.065 138.672 427.653 145.316 421.016 138.672L423.463 109.437L434.527 112.712H434.526Z" fill="#6C00FF"/>
<path d="M403.956 319.756C403.532 319.42 400.639 318.073 400.24 317.738C398.686 320.067 397.6 321.349 395.734 323.28C400.307 327.27 399.131 332.118 399.131 332.118C399.131 332.118 395.896 334.904 394.629 335.531C390.593 337.52 383.145 340.285 383.145 340.285L401.898 341.755L415.808 327.501C410.88 324.749 407.1 322.244 403.957 319.757L403.956 319.756Z" fill="#0F078E"/>
<path d="M330.493 320.802C327.506 320.278 323.736 322.567 321.305 320.802C320.742 326.02 320.85 328.867 320.85 328.867L293.105 340.313H328.538C328.858 336.536 328.181 332.91 328.689 329.411C328.95 327.612 330.166 322.534 330.493 320.802Z" fill="#0F078E"/>
<path d="M362.781 194.807L331.43 254.402C331.43 254.402 344.133 265.152 356.641 268.735L380.143 198.519L362.78 194.807H362.781Z" fill="#D9D9F5"/>
<path d="M397.124 324.804C399.004 322.881 400.558 320.585 402.105 318.252C393.994 311.3 390.027 304.135 379.006 291.806C374.448 286.702 386.525 257.481 389.456 252.58C394.726 243.773 395.54 237.387 399.66 222.312L369.04 233.754C361.752 259.872 353.26 285.992 361.774 298.45C370.771 311.623 386.734 322.234 394.439 327.531C394.733 327.734 396.867 324.608 397.123 324.803L397.124 324.804Z" fill="#0F078E"/>
<path d="M345.566 135.387C345.145 135.387 344.726 135.262 344.356 134.998C343.424 134.33 343.213 133.03 343.881 132.1C346.347 128.661 346.889 125.832 346.894 125.804C347.103 124.683 348.175 123.93 349.303 124.129C350.427 124.331 351.18 125.395 350.986 126.52C350.958 126.672 350.317 130.255 347.257 134.52C346.851 135.086 346.213 135.387 345.568 135.387H345.566Z" fill="#E5D9F6"/>
<path d="M397.477 228.613C406.59 203.579 414.373 164.296 417.288 148.619C415.659 147.942 414.062 147.433 412.795 147.079C410.091 146.334 406.851 145.453 404.078 146.315C402.67 146.754 401.417 147.479 400.189 148.251C399.052 151.654 398.585 154.522 398.585 154.522C398.585 154.522 379.007 191.959 366.252 217.49C377.085 219.92 387.68 223.479 397.478 228.613H397.477Z" fill="#D9D9F5"/>
<path d="M365.867 218.297C365.861 218.293 365.857 218.293 365.852 218.289C364.723 220.553 363.65 222.72 362.654 224.747C362.653 224.747 362.645 224.747 362.645 224.747C360.136 229.195 357.432 233.307 354.813 237.258C329.623 275.254 320.109 305.538 318.429 319.87C320.834 321.749 329.931 322.812 332.962 323.338C337.61 299.581 349.703 284.415 371.37 266.496C378.621 260.499 384.045 252.879 388.812 246.557C391.652 242.788 394.47 236.743 397.176 229.424C387.356 224.274 376.72 220.72 365.867 218.297Z" fill="#6C00FF"/>
<path d="M341.441 228.726C338.515 228.726 335.782 226.896 334.771 223.977C333.495 220.29 335.444 216.267 339.127 214.992C347.693 212.022 360.829 200.309 369.686 187.746C387.658 162.252 400.277 148.118 400.806 147.525C403.407 144.625 407.872 144.381 410.774 146.986C413.673 149.587 413.918 154.052 411.315 156.954C411.191 157.095 398.673 171.131 381.224 195.885C372.481 208.284 357.024 223.73 343.753 228.333C342.989 228.6 342.209 228.726 341.442 228.726H341.441Z" fill="#E5D9F6"/>
<path d="M412.331 150.958C412.169 150.958 412.004 150.95 411.838 150.94C408.18 150.669 405.431 147.488 405.697 143.824C405.977 139.998 407.458 135.615 407.628 135.126C408.826 131.657 412.607 129.816 416.076 131.016C419.541 132.211 421.383 135.99 420.189 139.46C419.772 140.681 419.064 143.212 418.95 144.794C418.693 148.291 415.779 150.956 412.329 150.96L412.331 150.958Z" fill="#E5D9F6"/>
<path d="M414.285 143.946C415.46 145.297 416.742 146.5 418.102 147.598C418.58 146.763 418.885 145.815 418.961 144.794C419.075 143.212 419.783 140.681 420.2 139.46C421.393 135.991 419.552 132.211 416.087 131.015C413.209 130.019 410.123 131.122 408.467 133.504C409.079 137.257 412.143 141.487 414.285 143.946Z" fill="#E5D9F6"/>
<path d="M431.381 129.577C431.225 136.512 425.479 142.011 418.541 141.857C411.606 141.7 406.112 135.95 406.266 129.013L406.461 120.293C406.616 113.353 412.366 107.857 419.301 108.012C426.236 108.169 431.731 113.919 431.576 120.857L431.381 129.579V129.577Z" fill="#E5D9F6"/>
<path d="M331.468 226.764C328.571 226.764 325.258 225.986 321.549 224.425C320.494 223.982 319.995 222.764 320.438 221.706C320.885 220.647 322.1 220.151 323.157 220.594C328.622 222.894 332.971 223.222 335.74 221.547C336.724 220.952 337.998 221.269 338.591 222.248C339.184 223.23 338.872 224.504 337.889 225.099C336.056 226.21 333.91 226.765 331.468 226.765V226.764Z" fill="#E5D9F6"/>
<path d="M333.946 229.761C330.643 229.761 327.992 229.121 324.976 228.389L324.041 228.166C322.927 227.9 322.239 226.779 322.506 225.661C322.772 224.547 323.893 223.85 325.01 224.125L325.954 224.353C330.987 225.571 334.317 226.377 341.678 224.475C342.794 224.191 343.921 224.856 344.207 225.968C344.492 227.08 343.826 228.213 342.714 228.502C339.168 229.417 336.38 229.761 333.945 229.761H333.946Z" fill="#E5D9F6"/>
<path d="M331.312 222.675C324.796 222.675 320.331 218.663 320.108 218.458C319.263 217.684 319.203 216.371 319.979 215.525C320.752 214.681 322.06 214.624 322.906 215.392C323.113 215.578 327.887 219.787 334.313 218.134C335.428 217.846 336.556 218.515 336.841 219.627C337.127 220.737 336.46 221.871 335.347 222.157C333.938 222.521 332.583 222.676 331.312 222.676V222.675Z" fill="#E5D9F6"/>
<path d="M335.672 220.45C335.591 220.45 335.51 220.442 335.429 220.436C328.357 219.607 325.483 214.514 325.363 214.299C324.812 213.293 325.18 212.031 326.186 211.477C327.184 210.928 328.438 211.288 328.994 212.283C329.093 212.454 331.053 215.739 335.91 216.309C337.05 216.442 337.864 217.473 337.73 218.611C337.609 219.666 336.712 220.449 335.672 220.449V220.45Z" fill="#E5D9F6"/>
<path d="M360.478 138.376C360.367 138.376 360.253 138.367 360.138 138.347C356.699 137.778 347.299 136.298 345.115 136.298C343.967 136.298 343.038 135.368 343.038 134.22C343.038 133.074 343.967 132.142 345.115 132.142C348.036 132.142 359.516 134.032 360.815 134.249C361.946 134.437 362.713 135.504 362.524 136.637C362.357 137.652 361.475 138.376 360.476 138.376H360.478Z" fill="#E5D9F6"/>
<path d="M359.168 142.721C358.988 142.721 358.8 142.698 358.62 142.646C358.52 142.62 348.646 139.932 344.054 139.669C342.908 139.605 342.034 138.624 342.1 137.477C342.164 136.332 343.153 135.428 344.289 135.523C349.32 135.808 359.292 138.525 359.713 138.64C360.819 138.942 361.471 140.084 361.168 141.189C360.917 142.114 360.081 142.72 359.167 142.72L359.168 142.721Z" fill="#E5D9F6"/>
<path d="M358.157 147.289C357.943 147.289 357.729 147.258 357.52 147.194C348.171 144.173 345.866 143.988 344.629 143.888C344.093 143.846 343.587 143.803 342.898 143.623C341.791 143.328 341.129 142.193 341.42 141.084C341.714 139.974 342.851 139.315 343.96 139.605C344.291 139.694 344.529 139.713 344.96 139.747C346.467 139.867 348.985 140.071 358.794 143.239C359.883 143.589 360.484 144.761 360.133 145.853C359.849 146.731 359.033 147.289 358.157 147.289Z" fill="#E5D9F6"/>
<path d="M354.055 150.65C354.008 150.65 353.956 150.646 353.905 150.642C344.543 149.973 344.153 144.89 344.14 144.309L348.292 144.211C348.292 144.211 348.297 144.163 348.281 144.077C348.285 144.099 348.713 146.108 354.201 146.501C355.344 146.581 356.204 147.575 356.123 148.717C356.045 149.813 355.135 150.649 354.054 150.649L354.055 150.65Z" fill="#E5D9F6"/>
<path d="M346.207 148.134C346.207 148.134 344.405 147.299 341.598 147.299C339.236 147.299 336.028 143.291 336.028 139.133C336.028 139.133 334.875 126.869 347.816 132.416L346.207 148.134Z" fill="#E5D9F6"/>
<path d="M386.956 184.603L368.814 273.959C368.814 273.959 396.91 280.73 414.143 270.802L418.502 146.646C418.502 146.646 399.217 139.895 386.956 184.603Z" fill="#D9D9F5"/>
<path d="M391.176 233.754L408.555 232.82C408.555 232.82 408.972 259.406 398.59 258.369C398.59 258.369 384.384 261.474 391.176 233.754Z" fill="#D9D9F5"/>
<path d="M412.975 144.526C411.068 142.813 408.607 141.873 406.045 141.873C403.101 141.873 400.282 143.127 398.319 145.319C397.787 145.913 385.093 160.118 366.957 185.841C365.769 187.525 364.463 189.244 363.072 190.952L361.228 193.215L363.238 195.335C365.378 197.598 367.625 199.804 369.795 201.934C370.973 203.091 372.151 204.248 373.314 205.416L375.88 207.988L378.212 205.202C380.294 202.721 382.215 200.233 383.923 197.816C401.264 173.215 413.648 159.329 413.775 159.188C417.593 154.927 417.235 148.347 412.975 144.526Z" fill="#D9D9F5"/>
<path d="M376.577 209.432L358.309 193.013L365.322 185.206L383.592 201.623L376.577 209.432Z" fill="#F3FAFE"/>
<path d="M393.681 134.57L409.643 140.827C409.643 140.827 416.431 107.789 411.477 102.834C411.477 102.834 393.681 101.147 393.681 134.57Z" fill="#6C00FF"/>
<path d="M412.393 108.575C412.959 109.419 425.343 117.686 435.069 115.398C435.069 115.398 433.408 100.794 410.705 102.898L412.393 108.576V108.575Z" fill="#6C00FF"/>
<path d="M421.961 124.161C421.961 127.998 418.851 131.106 415.018 131.106C411.185 131.106 408.078 127.998 408.078 124.161C408.078 120.328 411.185 117.22 415.018 117.22C418.851 117.22 421.961 120.328 421.961 124.161Z" stroke="#6C00FF" stroke-width="0.0252828" stroke-miterlimit="10"/>
<path d="M437.629 125.53C437.629 128.866 434.926 131.571 431.592 131.571C428.257 131.571 425.554 128.866 425.554 125.53C425.554 122.194 428.257 119.492 431.592 119.492C434.926 119.492 437.629 122.194 437.629 125.53Z" stroke="#6C00FF" stroke-width="0.0219704" stroke-miterlimit="10"/>
<path d="M421.956 124.128C421.956 124.128 424.26 123.227 425.631 124.601" stroke="#6C00FF" stroke-width="0.0252828" stroke-miterlimit="10"/>
<path d="M219.994 136.297C219.832 136.297 219.671 136.289 219.505 136.277C215.843 136.008 213.096 132.824 213.363 129.164C213.643 125.337 215.124 120.955 215.292 120.468C216.489 116.999 220.273 115.155 223.743 116.355C227.206 117.553 229.05 121.329 227.856 124.797C227.437 126.02 226.731 128.55 226.614 130.135C226.36 133.629 223.444 136.295 219.994 136.298V136.297Z" fill="#E5D9F6"/>
<path d="M216.037 320.77C227.04 325.851 236.07 325.746 236.798 325.851C243.972 313.079 265.585 278.492 245.923 250.107L218.114 235.155C218.114 235.155 245.923 264.18 216.037 320.77Z" fill="#0F078E"/>
<path d="M230.44 332.063C230.44 332.063 233.01 326.849 235.017 323.347C233.509 323.162 226.775 322.89 224.008 321.824C221.411 327.129 215.752 334.902 211.756 340.234H249.126L230.442 332.063H230.44Z" fill="#0F078E"/>
<path d="M276.672 251.778C272.024 242.753 238.269 215.576 235.209 199.968C234.939 198.588 234.707 197.166 234.506 195.714C229.085 198.584 222.049 199.36 216.471 199.647C210.146 199.968 206.366 200.359 200.245 197.379C200.766 207.067 199.188 216.42 204.838 226.232C216.049 245.701 253.301 262.373 257.456 268.804C265.649 281.497 268.483 309.05 271.273 325.858C275.66 325.858 286.059 325.668 290.334 324.149C288.891 315.528 291.231 280.049 276.673 251.776L276.672 251.778Z" fill="#6C00FF"/>
<path d="M288.304 330.586C288.304 330.586 287.092 325.671 286.729 323.379C282.454 324.88 279.965 323.368 275.565 323.379C276.233 327.546 275.739 335.34 276.125 339.911H311.557L288.304 330.585V330.586Z" fill="#0F078E"/>
<path d="M216.737 204.708C222.134 204.461 233.469 202.957 238.018 198.408C237.087 191 233.776 179.077 234.941 169.484C238.892 136.954 223.016 127.204 223.016 127.204C223.016 127.204 215.707 122.092 209.782 128.199C200.851 137.401 192.138 163.424 193.01 201.897C199.167 205.076 210.267 205.004 216.739 204.706L216.737 204.708Z" fill="#D9D9F5"/>
<path d="M298.159 215.026C297.632 215.026 297.095 214.969 296.557 214.842C270.972 208.902 249.305 193.569 233.896 170.492C222.351 153.204 218.363 137.687 218.197 137.036C217.243 133.254 219.536 129.416 223.318 128.465C227.095 127.511 230.928 129.799 231.885 133.576C231.96 133.859 235.636 147.815 245.901 163.046C259.449 183.135 277.565 195.935 299.747 201.085C303.546 201.964 305.908 205.758 305.028 209.558C304.272 212.821 301.368 215.025 298.158 215.025L298.159 215.026Z" fill="#E5D9F6"/>
<path d="M282.593 193.759C268.495 187.082 256.492 176.496 246.921 162.297C236.779 147.255 233.109 133.353 233.078 133.22C232.143 129.529 228.833 126.952 225.034 126.952C224.35 126.952 223.663 127.037 222.998 127.204C220.846 127.746 219.036 129.093 217.897 131C216.758 132.904 216.43 135.138 216.972 137.291L217.007 137.443C218.098 142.197 222.462 158.917 232.844 174.457C245.269 193.067 262.127 206.997 281.597 214.745C281.744 214.802 281.901 214.832 282.057 214.832C282.301 214.832 282.546 214.76 282.755 214.615C283.096 214.384 283.301 213.999 283.301 213.584V194.883C283.301 194.4 283.024 193.964 282.59 193.759H282.593Z" fill="#D9D9F5"/>
<path d="M303.401 215.496C301.14 215.496 298.739 215.245 296.203 214.736C295.076 214.513 294.349 213.416 294.572 212.292C294.798 211.169 295.89 210.437 297.017 210.664C303.2 211.901 308.356 211.45 312.348 209.325C313.362 208.784 314.618 209.169 315.156 210.18C315.695 211.192 315.311 212.451 314.298 212.989C311.162 214.66 307.517 215.496 303.403 215.496H303.401Z" fill="#E5D9F6"/>
<path d="M303.693 210.871C302.705 210.871 301.687 210.806 300.653 210.654C299.519 210.488 298.733 209.431 298.9 208.296C299.065 207.162 300.116 206.375 301.254 206.542C307.894 207.515 314.043 204.066 314.104 204.03C315.1 203.464 316.366 203.807 316.935 204.802C317.505 205.796 317.164 207.061 316.172 207.635C315.91 207.782 310.461 210.871 303.693 210.871Z" fill="#E5D9F6"/>
<path d="M301.843 206.747C301.52 206.747 301.192 206.737 300.855 206.714C299.709 206.643 298.84 205.659 298.913 204.513C298.985 203.366 299.973 202.497 301.117 202.569C306.029 202.872 308.606 199.888 308.63 199.858C309.352 198.965 310.66 198.832 311.55 199.555C312.438 200.276 312.578 201.585 311.853 202.474C311.705 202.658 308.308 206.745 301.844 206.745L301.843 206.747Z" fill="#E5D9F6"/>
<path d="M294.664 203.263C293.519 203.263 292.587 202.336 292.587 201.188C292.587 200.045 293.511 199.115 294.653 199.111C294.838 199.109 298.938 199.016 301.284 195.635C301.936 194.69 303.23 194.459 304.173 195.112C305.116 195.765 305.35 197.057 304.695 198.002C301.085 203.206 294.923 203.262 294.665 203.262L294.664 203.263Z" fill="#E5D9F6"/>
<path d="M287.89 156.409C287.243 156.409 286.605 156.11 286.2 155.543C283.138 151.277 282.494 147.695 282.469 147.542C282.273 146.414 283.032 145.341 284.162 145.146C285.287 144.95 286.365 145.709 286.56 146.841C286.564 146.854 287.108 149.685 289.574 153.122C290.242 154.056 290.029 155.353 289.096 156.019C288.732 156.283 288.308 156.408 287.89 156.408V156.409Z" fill="#E5D9F6"/>
<path d="M288.308 157.322C288.179 157.322 288.046 157.31 287.914 157.288C283.374 156.415 274.362 156.404 274.269 156.404C273.123 156.404 272.193 155.474 272.193 154.328C272.193 153.181 273.123 152.251 274.269 152.251C274.656 152.251 283.767 152.262 288.696 153.208C289.822 153.419 290.56 154.509 290.345 155.636C290.155 156.632 289.284 157.324 288.309 157.324L288.308 157.322Z" fill="#E5D9F6"/>
<path d="M273.133 161.635C272.1 161.635 271.204 160.863 271.074 159.815C270.932 158.675 271.74 157.637 272.878 157.498C274.197 157.332 285.858 155.911 289.63 156.582C290.759 156.779 291.512 157.856 291.31 158.988C291.111 160.118 290.03 160.874 288.905 160.669C286.526 160.25 278.128 161.029 273.39 161.615C273.304 161.627 273.218 161.633 273.133 161.633V161.635Z" fill="#E5D9F6"/>
<path d="M275.855 166.3C274.879 166.3 274.01 165.612 273.819 164.617C273.601 163.488 274.339 162.401 275.466 162.183C280.494 161.214 281.836 160.787 284.272 160C285.411 159.633 286.832 159.179 288.948 158.563C290.048 158.245 291.202 158.877 291.52 159.977C291.839 161.08 291.206 162.233 290.102 162.551C288.046 163.149 286.716 163.577 285.544 163.951C283.04 164.759 281.527 165.247 276.252 166.262C276.118 166.288 275.985 166.299 275.856 166.299L275.855 166.3Z" fill="#E5D9F6"/>
<path d="M280.297 169.6C279.305 169.6 278.427 168.886 278.253 167.873C278.062 166.742 278.822 165.667 279.95 165.477C286.676 164.324 288.014 161.815 288.022 161.791C288.382 160.699 289.555 160.106 290.645 160.467C291.733 160.827 292.324 162.003 291.965 163.091C291.697 163.894 289.904 167.984 280.65 169.569C280.531 169.588 280.414 169.599 280.296 169.599L280.297 169.6Z" fill="#E5D9F6"/>
<path d="M288.301 167.102L286.718 150.176C286.718 150.176 294.141 150.717 294.126 158.497C294.121 161.097 293.372 163.991 288.301 167.103V167.102Z" fill="#E5D9F6"/>
<path d="M241.578 111.95C243.452 119.035 239.229 126.303 232.143 128.177C225.057 130.051 217.795 125.828 215.919 118.739L213.563 109.829C211.689 102.742 215.912 95.4757 222.997 93.6011C230.084 91.7239 237.345 95.95 239.222 103.039L241.578 111.95Z" fill="#E5D9F6"/>
<path d="M240.335 107.296C239.33 110.106 237.901 112.893 235.711 114.786C230.369 119.398 222.179 120.641 215.68 117.877L215.921 118.793C217.797 125.882 225.058 130.106 232.146 128.231C239.231 126.358 243.455 119.091 241.581 112.004L240.336 107.296H240.335Z" fill="#6C00FF"/>
<path d="M215.902 118.255C210.918 115.053 205.535 102.886 213.408 100.221C218.279 98.574 216.316 113.593 216.316 117.839L215.9 118.255H215.902Z" fill="#6C00FF"/>
<path d="M211.902 101.243C205.877 96.8772 213.342 84.5256 228.226 84.5256C237.427 84.5256 237.358 91.5763 230.996 95.3799C225.717 98.5366 217.53 96.6885 213.564 102.073L211.903 101.243H211.902Z" fill="#6C00FF"/>
<path d="M240.348 110.01C238.238 106.811 234.082 100.329 232.466 96.6782C231.441 94.3612 230.037 90.4087 234.677 93.216C238.563 95.5649 240.672 103.85 240.307 108.049L240.348 110.009V110.01Z" fill="#6C00FF"/>
<path d="M135.156 139.502C132.865 141.623 130.343 143.601 128.278 145.964L98.3079 208.593L120.616 179.784L144.313 130.78C141.282 133.711 138.25 136.64 135.155 139.502H135.156Z" fill="#0F078E"/>
<path d="M117.376 129.228C119.55 126.253 121.643 122.759 124.116 119.685L71.6574 94.0637L21.886 99.0498L109.093 139.278C111.953 136.015 114.827 132.713 117.374 129.228H117.376Z" fill="#0F078E"/>
<path d="M124.89 120.077C122.101 123.565 119.84 127.671 117.162 130.931C114.761 133.858 112.348 136.779 109.882 139.653L149.528 157.94L163.923 139.137L124.89 120.075V120.077Z" fill="#E5D9F6"/>
<path d="M124.852 68.0586L122.813 67.0808L51.8512 108.638L95.4432 129.516L124.852 68.0586ZM65.1782 192.758L80.5557 160.625L0 122.05L12.9352 95.0202L145.589 16.8668L181.788 34.2018L128.581 145.387L150.503 155.888L135.615 186.996L113.692 176.499L98.3184 208.631L65.1782 192.759V192.758Z" fill="#6C00FF"/>
<path d="M150.49 155.891L163.897 139.148L153.377 162.482L135.108 188.009L150.49 155.891Z" fill="#0F078E"/>
<path d="M145.38 129.89L197.692 15.178L181.797 34.2055L128.59 145.391C130.074 143.961 144.532 130.738 145.38 129.89Z" fill="#0F078E"/>
<path d="M12.9368 95.0088L36.5761 74.4228L166.194 0L145.591 16.854L12.9368 95.0088Z" fill="#E5D9F6"/>
<path d="M145.581 16.854L181.78 34.1902L197.674 15.1627L166.184 0L145.581 16.854Z" fill="#6C00FF"/>
<path d="M97.0049 115.272C97.6915 114.066 98.1603 113.152 98.5999 112.245C98.2267 113.128 97.7048 114.136 97.0049 115.272ZM101.162 100.661C96.7087 97.495 93.6436 98.8793 91.5054 99.2114C89.164 99.5728 87.4309 98.2948 87.4216 98.2894C86.4601 97.6663 85.1733 97.9387 84.5517 98.9019C83.9262 99.8638 84.2011 101.149 85.1639 101.773C85.2596 101.837 87.0724 102.989 90.2385 103.822C86.7855 106.969 83.2635 110.77 83.0683 110.982C82.29 111.826 82.3418 113.14 83.1838 113.919C83.5822 114.288 84.0896 114.47 84.5916 114.47C85.152 114.47 85.7098 114.245 86.1175 113.802C86.1573 113.759 88.6116 111.111 91.35 108.471C88.8068 111.655 86.419 114.967 85.9847 115.575C85.3167 116.509 85.5305 117.806 86.4615 118.474C86.8267 118.737 87.249 118.862 87.67 118.862C88.3154 118.862 88.9516 118.563 89.3579 117.996C90.7152 116.099 92.6342 113.535 94.4656 111.234C93.783 112.581 92.9198 114.106 91.188 116.894C90.5824 117.868 90.8799 119.149 91.856 119.755C92.196 119.967 92.5745 120.067 92.9477 120.067C93.6436 120.067 94.3196 119.72 94.7153 119.088C95.4271 117.94 96.0022 116.991 96.4816 116.174C96.1204 117.076 96.4325 118.135 97.2771 118.687C97.6251 118.914 98.0182 119.023 98.4073 119.023C99.0859 119.023 99.7526 118.689 100.151 118.078C102.095 115.084 103.04 112.639 103.446 110.714L103.531 110.778C104.685 104.94 103.28 102.165 101.163 100.661H101.162Z" fill="#E5D9F6"/>
<path d="M37.5705 124.199C30.9967 123.827 21.4586 136.698 31.2185 140.2C22.3829 139.991 20.2235 152.483 28.3207 155.932C14.1397 153.172 15.7892 171.556 22.4972 178.208C17.9499 177.482 13.3562 181.827 14.0441 186.56C14.7373 191.324 16.6245 197.929 28.4096 201.469C40.1961 205.008 47.3981 198.38 53.2628 192.13C57.0159 199.803 75.5701 189.434 73.513 180.257C80.5145 182.739 86.7882 174.79 86.9303 168.438C87.0671 162.24 82.727 157.509 78.6007 153.483C81.5079 150.82 82.059 145.881 81.294 142.106C80.0204 135.838 72.1769 135.215 72.1769 130.225C72.1769 128.479 72.5103 123.056 71.0242 120.674C68.6563 116.882 64.5353 113.129 59.3506 114.981C37.5719 104.646 37.5719 124.197 37.5719 124.197L37.5705 124.199Z" fill="#6C00FF"/>
<path d="M50.2766 325.831C44.2857 324.787 43.3189 325.086 37.4025 323.641L23.7009 340.391H76.851L45.9843 332.083L50.2766 325.83V325.831Z" fill="#0F078E"/>
<path d="M149.247 330.622L146.106 326.494C143.271 328.329 140.32 329.897 137.118 331.011L145.51 340.382H176.651L149.247 330.622Z" fill="#0F078E"/>
<path d="M31.7757 325.923C37.7294 327.383 43.6817 328.901 49.7098 329.923L93.5979 275.908L86.1237 254.447L55.3952 219.002L64.2466 269.235L31.7744 325.923H31.7757Z" fill="#0F078E"/>
<path d="M91.4737 204.128C79.4309 200.93 63.1065 204.974 51.3904 209.395C51.3904 209.395 58.5765 238.015 63.2937 246.552C77.0337 271.407 136.452 333.448 136.452 333.448C139.715 332.337 146.004 327.731 148.883 325.867L91.4737 204.128Z" fill="#6C00FF"/>
<path d="M49.8033 220.574C61.4318 216.207 84.755 208.84 96.7247 211.832C96.7247 211.832 80.8744 174.586 73.6791 166.368C68.8224 160.826 42.3118 145.22 42.3118 165.623C42.3118 193.579 49.8033 220.574 49.8033 220.574Z" fill="#D9D9F5"/>
<path d="M60.1163 163.878C59.961 163.932 59.8069 163.979 59.6462 164.026C56.1043 164.98 52.4574 162.883 51.5026 159.341C50.5025 155.636 50.4547 151.009 50.4508 150.493C50.4335 146.821 53.3977 143.835 57.0671 143.819C60.7339 143.803 63.7206 146.761 63.7392 150.428C63.7485 151.722 63.9159 154.342 64.3289 155.873C65.2413 159.26 63.3714 162.739 60.1163 163.877V163.878Z" fill="#E5D9F6"/>
<path d="M64.548 157.307C64.5241 156.831 64.4577 156.354 64.3289 155.873C63.9159 154.341 63.7485 151.721 63.7392 150.428C63.7206 146.761 60.7338 143.803 57.0671 143.819C53.3977 143.833 50.4348 146.821 50.4507 150.493C50.4507 150.577 50.4547 150.778 50.46 151.057C53.7337 154.754 59.1296 156.494 64.548 157.309V157.307Z" fill="#E5D9F6"/>
<path d="M71.042 137.382C73.1855 143.983 69.5732 151.068 62.9754 153.216C56.3776 155.359 49.2911 151.747 47.1476 145.146L44.4543 136.851C42.3109 130.251 45.9232 123.162 52.5183 121.017C59.1161 118.873 66.2026 122.484 68.3461 129.086L71.0407 137.381L71.042 137.382Z" fill="#E5D9F6"/>
<path d="M145.034 130.721C144.771 130.499 144.466 130.363 144.152 130.293C144.455 129.962 144.779 129.606 145.158 129.197C145.935 128.353 145.88 127.039 145.037 126.263C144.932 126.168 144.822 126.084 144.705 126.015C145.284 125.183 145.188 124.033 144.427 123.319C143.835 122.768 143.014 122.635 142.302 122.891C143.248 121.935 143.838 121.272 143.907 121.191C144.665 120.329 144.584 119.017 143.722 118.259C142.863 117.5 141.549 117.584 140.792 118.445C140.743 118.499 136.229 123.586 131.588 126.237C129.573 123.19 126.872 122.122 126.716 122.062C125.651 121.659 124.475 122.194 124.06 123.253C123.645 124.312 124.173 125.511 125.226 125.939C125.318 125.976 126.905 126.65 128.139 128.548C127.969 129.019 127.77 129.687 127.658 130.469C97.1034 171.839 56.5898 157.153 54.7558 156.457C51.1276 155.068 47.0531 156.869 45.6454 160.499C44.2337 164.135 46.0398 168.224 49.6733 169.634C50.1674 169.825 60.0853 173.597 74.2317 173.597C77.0751 173.597 80.0937 173.446 83.2359 173.078C98.4859 171.308 121.046 162.519 139.071 139.28C139.366 139.113 139.784 138.853 140.337 138.45C140.707 138.21 141.082 137.948 141.463 137.63L141.415 137.593C142.482 136.696 143.796 135.425 145.289 133.645C146.028 132.764 145.911 131.454 145.033 130.719L145.034 130.721Z" fill="#E5D9F6"/>
<path d="M88.7786 156.54L87.0601 156.911C82.8634 157.816 78.522 158.277 74.1501 158.277C63.4393 158.277 55.9996 155.576 55.1921 155.269C54.2359 154.9 53.2345 154.718 52.2186 154.718C48.7617 154.718 45.7231 156.797 44.4734 160.023C43.6713 162.091 43.5291 164.444 44.6168 166.376C48.6714 173.572 59.8045 176.482 74.2218 176.482C77.2869 176.482 80.364 176.305 83.3681 175.959C85.2048 175.746 87.1344 175.43 89.1013 175.015L90.3111 174.698C90.3111 174.698 88.5807 169.454 88.2141 164.126C88.072 162.099 88.7786 156.54 88.7786 156.54Z" fill="#D9D9F5"/>
<path d="M44.1919 143.524C48.5519 140.752 50.0592 135.56 49.5798 130.367C53.4032 132.939 56.4285 131.369 58.8177 126.951C66.0609 137.107 77.1037 121.997 62.0475 116.526C50.0034 112.15 38.1997 124.063 41.2861 136.044L44.1932 143.522L44.1919 143.524Z" fill="#6C00FF"/>
</svg>
