<svg width="48" height="48" viewBox="0 0 48 48" fill="none" xmlns="http://www.w3.org/2000/svg">
<path d="M36.5487 22.9335L36.5488 22.9356C36.5821 23.7167 35.9494 24.3057 35.1772 24.3057C34.4417 24.3057 33.8056 23.6843 33.8056 22.9335C33.8056 22.2157 34.4424 21.5612 35.1772 21.5612C35.9466 21.5612 36.5488 22.1818 36.5487 22.9335ZM35.1772 21.9014C34.5937 21.9014 34.1217 22.399 34.1217 22.9673C34.1217 23.5356 34.5937 24.0332 35.1772 24.0332C35.7596 24.0332 36.2327 23.5706 36.2327 22.9673C36.2327 22.399 35.7606 21.9014 35.1772 21.9014Z" fill="#6C00FF" stroke="#6C00FF" stroke-width="0.1"/>
<path d="M37.2571 26.3907C37.2585 26.4073 37.2594 26.424 37.26 26.4388H33.0944V26.2846C33.0944 25.7601 33.1521 25.3407 33.2571 25.033C33.3624 24.7245 33.5126 24.5358 33.6925 24.4587C33.953 24.3483 34.2334 24.4256 34.4597 24.5461C34.572 24.606 34.6684 24.6752 34.7386 24.7335C34.7737 24.7627 34.8018 24.7888 34.8219 24.8092C34.832 24.8195 34.8397 24.828 34.8451 24.8346C34.8502 24.8407 34.8518 24.8434 34.8518 24.8433L34.8564 24.8528L34.8649 24.8597C34.9499 24.9297 35.0115 24.9664 35.0536 24.9857C35.0747 24.9954 35.0912 25.0007 35.1035 25.0037C35.1096 25.0052 35.1147 25.0061 35.1188 25.0066L35.1242 25.0071L35.1264 25.0072L35.1273 25.0072L35.1277 25.0072L35.128 25.0072L35.1281 25.0072C35.1281 25.0072 35.1282 25.0072 35.1282 24.9586V25.0072C35.1563 25.0072 35.1978 24.9946 35.242 24.9719C35.2881 24.9482 35.3421 24.911 35.3955 24.8559C35.426 24.8246 35.5955 24.6666 35.8252 24.5463C36.056 24.4255 36.3365 24.3483 36.597 24.4587L36.5981 24.4592C36.7945 24.5369 36.9523 24.7259 37.0614 25.0335C37.1704 25.3409 37.228 25.76 37.228 26.2846V26.3346H37.25C37.253 26.3494 37.2554 26.3691 37.2571 26.3907ZM33.3913 26.0804V26.1304H33.4413H36.9142H36.9659L36.9642 26.0787C36.931 25.0891 36.6988 24.8242 36.5402 24.7426C36.4611 24.7019 36.3724 24.6983 36.2859 24.7145C36.1994 24.7307 36.1117 24.7672 36.0304 24.8112C35.8682 24.899 35.7237 25.0215 35.6546 25.0926C35.4933 25.2585 35.3401 25.3497 35.1612 25.3497C35.0122 25.3497 34.8584 25.2893 34.6663 25.1249C34.5955 25.0527 34.4515 24.94 34.2911 24.8575C34.21 24.8158 34.1229 24.7808 34.0375 24.7631C33.9527 24.7455 33.8659 24.7443 33.788 24.7741C33.7199 24.7979 33.6212 24.8804 33.5399 25.074C33.4579 25.2695 33.3913 25.583 33.3913 26.0804Z" fill="#6C00FF" stroke="#6C00FF" stroke-width="0.1"/>
<path d="M35.1778 37.8169C34.442 37.8169 33.8056 37.1955 33.8056 36.4447C33.8056 35.7269 34.4427 35.0725 35.1778 35.0725C35.9137 35.0725 36.5501 35.6938 36.5501 36.4447C36.5501 37.2286 35.9145 37.8169 35.1778 37.8169ZM35.1778 35.4127C34.5942 35.4127 34.1219 35.9102 34.1219 36.4785C34.1219 37.0469 34.5942 37.5444 35.1778 37.5444C35.7604 37.5444 36.2338 37.0818 36.2338 36.4785C36.2338 35.8752 35.7604 35.4127 35.1778 35.4127Z" fill="#6C00FF" stroke="#6C00FF" stroke-width="0.1"/>
<path d="M35.1282 38.4685L35.1282 38.5185C35.1563 38.5185 35.1978 38.5059 35.242 38.4831C35.2881 38.4594 35.3421 38.4222 35.3955 38.3672C35.426 38.3358 35.5955 38.1778 35.8252 38.0575C36.056 37.9367 36.3365 37.8596 36.597 37.9699L36.5981 37.9704C36.7945 38.0481 36.9523 38.2371 37.0614 38.5447C37.1704 38.8521 37.228 39.2712 37.228 39.7958V39.95H33.0944V39.7958C33.0944 39.2713 33.1521 38.8519 33.2571 38.5442C33.3624 38.2357 33.5126 38.047 33.6925 37.9699C33.953 37.8596 34.2334 37.9368 34.4597 38.0574C34.572 38.1172 34.6684 38.1865 34.7386 38.2448C34.7737 38.2739 34.8018 38.3 34.8219 38.3205C34.832 38.3307 34.8397 38.3393 34.8451 38.3458C34.8502 38.3519 34.8518 38.3546 34.8518 38.3546L34.8564 38.364L34.8649 38.3709C34.9499 38.441 35.0115 38.4776 35.0536 38.4969C35.0747 38.5066 35.0912 38.512 35.1035 38.5149C35.1096 38.5164 35.1147 38.5173 35.1188 38.5178L35.1242 38.5183L35.1264 38.5184L35.1273 38.5185L35.1277 38.5185L35.128 38.5185L35.1281 38.5185C35.1281 38.5185 35.1282 38.5185 35.1282 38.4685ZM33.3913 39.5916V39.6416H33.4413H36.9142H36.9659L36.9642 39.5899C36.931 38.6003 36.6988 38.3354 36.5402 38.2538C36.4611 38.2131 36.3724 38.2095 36.2859 38.2257C36.1994 38.2419 36.1117 38.2784 36.0304 38.3224C35.8682 38.4103 35.7237 38.5327 35.6546 38.6038C35.4933 38.7697 35.3401 38.8609 35.1612 38.8609C35.0122 38.8609 34.8584 38.8005 34.6663 38.6362C34.5955 38.5639 34.4515 38.4512 34.2911 38.3687C34.21 38.327 34.1229 38.292 34.0375 38.2743C33.9527 38.2567 33.8659 38.2555 33.788 38.2854C33.7199 38.3092 33.6212 38.3917 33.5399 38.5853C33.4579 38.7807 33.3913 39.0942 33.3913 39.5916Z" fill="#6C00FF" stroke="#6C00FF" stroke-width="0.1"/>
<path d="M36.5487 9.45608L36.5488 9.45831C36.582 10.2047 35.9503 10.7944 35.1772 10.7944C34.4417 10.7944 33.8056 10.1731 33.8056 9.42222C33.8056 8.70478 34.4418 8.05063 35.1761 8.05C35.9471 8.08328 36.5488 8.70514 36.5487 9.45608ZM35.1772 8.42407C34.5937 8.42407 34.1217 8.92162 34.1217 9.48995C34.1217 10.0583 34.5937 10.5558 35.1772 10.5558C35.7596 10.5558 36.2327 10.0932 36.2327 9.48995C36.2327 8.88667 35.7596 8.42407 35.1772 8.42407Z" fill="#6C00FF" stroke="#6C00FF" stroke-width="0.1"/>
<path d="M35.1281 11.496C35.1281 11.496 35.1282 11.496 35.1282 11.446V11.496C35.1563 11.496 35.1978 11.4834 35.242 11.4607C35.2881 11.437 35.3421 11.3997 35.3955 11.3447C35.426 11.3134 35.5955 11.1554 35.8252 11.0351C36.056 10.9143 36.3365 10.8371 36.597 10.9475L36.5981 10.9479C36.7945 11.0256 36.9523 11.2147 37.0614 11.5223C37.1704 11.8296 37.228 12.2488 37.228 12.7734V12.8234H37.25C37.253 12.8381 37.2554 12.8579 37.2571 12.8795C37.2585 12.8961 37.2594 12.9127 37.26 12.9276H33.0944V12.7734C33.0944 12.2488 33.1521 11.8294 33.2571 11.5217C33.3624 11.2133 33.5126 11.0246 33.6925 10.9474C33.953 10.8371 34.2334 10.9143 34.4597 11.0349C34.572 11.0948 34.6684 11.164 34.7386 11.2223C34.7737 11.2514 34.8018 11.2775 34.8219 11.298C34.832 11.3083 34.8397 11.3168 34.8451 11.3233C34.8502 11.3294 34.8518 11.3321 34.8518 11.3321L34.8564 11.3415L34.8649 11.3485C34.9499 11.4185 35.0115 11.4552 35.0536 11.4745C35.0747 11.4841 35.0912 11.4895 35.1035 11.4925C35.1096 11.494 35.1147 11.4948 35.1188 11.4954L35.1242 11.4959L35.1264 11.496L35.1273 11.496L35.1277 11.496L35.128 11.496L35.1281 11.496ZM33.3913 12.5692V12.6192H33.4413H36.9142H36.9659L36.9642 12.5675C36.931 11.5778 36.6988 11.313 36.5402 11.2314C36.4611 11.1907 36.3724 11.1871 36.2859 11.2033C36.1994 11.2195 36.1117 11.2559 36.0304 11.2999C35.8682 11.3878 35.7237 11.5102 35.6546 11.5813C35.4933 11.7473 35.3401 11.8385 35.1612 11.8385C35.0122 11.8385 34.8584 11.7781 34.6663 11.6137C34.5955 11.5415 34.4515 11.4288 34.2911 11.3462C34.21 11.3045 34.1229 11.2696 34.0375 11.2519C33.9551 11.2348 33.871 11.2331 33.7949 11.2604C33.7528 11.2643 33.7093 11.2921 33.6701 11.3335C33.626 11.38 33.5807 11.4507 33.5398 11.5504C33.4579 11.7499 33.3913 12.0718 33.3913 12.5692Z" fill="#6C00FF" stroke="#6C00FF" stroke-width="0.1"/>
<path d="M25.8819 16.5331L25.882 16.5352C25.9153 17.3163 25.2826 17.9053 24.5104 17.9053C23.7749 17.9053 23.1388 17.2839 23.1388 16.5331C23.1388 15.8153 23.7756 15.1608 24.5104 15.1608C25.2798 15.1608 25.8819 15.7814 25.8819 16.5331ZM24.5104 15.5349C23.9269 15.5349 23.4549 16.0325 23.4549 16.6008C23.4549 17.1691 23.9269 17.6667 24.5104 17.6667C25.0927 17.6667 25.5659 17.2041 25.5659 16.6008C25.5659 15.9975 25.0927 15.5349 24.5104 15.5349Z" fill="#6C00FF" stroke="#6C00FF" stroke-width="0.1"/>
<path d="M26.5612 20.0079L26.5902 19.9779C26.5918 19.9987 26.5927 20.0203 26.5933 20.0389H22.4276V19.8847C22.4276 19.3602 22.4852 18.9407 22.5903 18.633C22.6956 18.3246 22.8458 18.1359 23.0256 18.0588C23.2861 17.9484 23.5665 18.0256 23.7928 18.1462C23.9051 18.2061 24.0015 18.2753 24.0717 18.3336C24.1068 18.3628 24.135 18.3889 24.155 18.4093C24.1651 18.4196 24.1728 18.4281 24.1782 18.4347C24.1833 18.4408 24.1849 18.4435 24.185 18.4434L24.1896 18.4529L24.198 18.4598C24.283 18.5298 24.3446 18.5665 24.3867 18.5858C24.4079 18.5955 24.4243 18.6008 24.4366 18.6038C24.4427 18.6053 24.4478 18.6062 24.4519 18.6067L24.4573 18.6072L24.4595 18.6073L24.4604 18.6073L24.4609 18.6073L24.4611 18.6073L24.4612 18.6073C24.4612 18.6073 24.4613 18.6073 24.4613 18.5587V18.6073C24.4895 18.6073 24.5309 18.5947 24.5751 18.572C24.6212 18.5483 24.6752 18.5111 24.7287 18.456C24.7591 18.4247 24.9286 18.2667 25.1584 18.1464C25.3892 18.0256 25.6696 17.9484 25.9302 18.0588L25.9313 18.0593C26.1276 18.137 26.2855 18.326 26.3945 18.6336C26.5035 18.941 26.5612 19.3601 26.5612 19.8847V20.0079ZM22.7245 19.6464V19.6964H22.7745H26.2473H26.299L26.2973 19.6448C26.2641 18.6551 26.0319 18.3903 25.8733 18.3087C25.7942 18.268 25.7056 18.2644 25.619 18.2806C25.5325 18.2968 25.4448 18.3332 25.3636 18.3772C25.2013 18.4651 25.0568 18.5875 24.9877 18.6586C24.8264 18.8246 24.6732 18.9157 24.4944 18.9157C24.3453 18.9157 24.1915 18.8554 23.9994 18.691C23.9287 18.6187 23.7846 18.5061 23.6242 18.4235C23.5431 18.3818 23.4561 18.3468 23.3707 18.3292C23.2858 18.3116 23.1991 18.3104 23.1211 18.3402C23.053 18.364 22.9543 18.4465 22.8731 18.6401C22.7911 18.8355 22.7245 19.149 22.7245 19.6464Z" fill="#6C00FF" stroke="#6C00FF" stroke-width="0.1"/>
<path d="M24.511 31.4165C23.7751 31.4165 23.1388 30.7952 23.1388 30.0443C23.1388 29.3265 23.7759 28.6721 24.511 28.6721C25.2469 28.6721 25.8833 29.2934 25.8833 30.0443C25.8833 30.8282 25.2477 31.4165 24.511 31.4165ZM24.511 29.0123C23.9273 29.0123 23.4551 29.5098 23.4551 30.0782C23.4551 30.6465 23.9273 31.144 24.511 31.144C25.0936 31.144 25.567 30.6815 25.567 30.0782C25.567 29.4749 25.0936 29.0123 24.511 29.0123Z" fill="#6C00FF" stroke="#6C00FF" stroke-width="0.1"/>
<path d="M24.4613 31.5582L24.4613 31.6082C24.4789 31.6082 24.4983 31.6027 24.5165 31.5952C24.5357 31.5873 24.5574 31.5756 24.5805 31.5597C24.6269 31.5279 24.6805 31.4784 24.7332 31.4061C24.7643 31.3634 24.9342 31.1525 25.1638 30.9923C25.3952 30.8307 25.6701 30.7316 25.9251 30.8757L25.9263 30.8764C26.1221 30.9797 26.2826 31.2342 26.3933 31.6505C26.5034 32.0643 26.5612 32.6268 26.5612 33.328V33.5503H22.4276V33.328C22.4276 32.6268 22.4853 32.0642 22.5914 31.65C22.6982 31.2331 22.8509 30.9785 23.0307 30.8756C23.2856 30.7317 23.5605 30.8308 23.7874 30.992C23.8995 31.0717 23.9961 31.1641 24.0666 31.2422C24.1018 31.2811 24.1301 31.3162 24.1505 31.3438C24.1606 31.3577 24.1686 31.3693 24.1743 31.3785C24.1771 31.3831 24.1792 31.3868 24.1807 31.3896C24.1823 31.3927 24.1828 31.3939 24.1828 31.3938L24.1862 31.4031L24.1928 31.4104C24.2775 31.5033 24.339 31.5523 24.3815 31.5782C24.4029 31.5912 24.4199 31.5987 24.433 31.603C24.4396 31.6051 24.4452 31.6064 24.4499 31.6072L24.4563 31.608L24.459 31.6082L24.4602 31.6082L24.4607 31.6082L24.461 31.6082L24.4611 31.6082C24.4612 31.6082 24.4613 31.6082 24.4613 31.5582ZM22.7245 33.0557V33.1057H22.7745H26.2473H26.2986L26.2973 33.0545C26.2807 32.3943 26.2143 31.9808 26.1339 31.7194C26.0534 31.4577 25.9574 31.344 25.8787 31.2901C25.7976 31.2345 25.7054 31.2293 25.6161 31.2516C25.5279 31.2736 25.4392 31.323 25.3581 31.3815C25.1957 31.4988 25.0516 31.6618 24.9832 31.7557C24.8195 31.9802 24.6672 32.0982 24.4944 32.0982C24.3506 32.0982 24.1982 32.0205 24.0042 31.7992C23.9344 31.7039 23.7906 31.5536 23.6296 31.4432C23.5485 31.3876 23.4607 31.3404 23.3738 31.3164C23.2871 31.2925 23.1971 31.2906 23.1164 31.3317C23.0807 31.3484 23.0396 31.3844 22.9983 31.4449C22.9561 31.5067 22.9118 31.5965 22.8715 31.7247C22.7908 31.9809 22.7245 32.3949 22.7245 33.0557Z" fill="#6C00FF" stroke="#6C00FF" stroke-width="0.1"/>
<path d="M15.2168 22.9335C15.2168 23.6913 14.6024 24.3057 13.8446 24.3057C13.0867 24.3057 12.4724 23.6913 12.4724 22.9335C12.4724 22.1756 13.0867 21.5612 13.8446 21.5612C14.6024 21.5612 15.2168 22.1756 15.2168 22.9335Z" fill="#6C00FF" stroke="#6C00FF" stroke-width="0.1"/>
<path d="M11.0507 26.4388C11.0801 25.3593 12.0582 24.4841 13.3168 24.4081C13.3157 24.4819 13.3104 24.566 13.2845 24.6494L13.2644 24.7142H13.3322H13.7152H13.7652V24.6642C13.7652 24.6037 13.7558 24.5509 13.7472 24.5025L13.747 24.5011C13.7414 24.4697 13.7362 24.4401 13.7332 24.4096C14.955 24.5136 15.898 25.3869 15.9271 26.4388H11.0507ZM13.5097 26.247L13.5446 26.2751L13.5763 26.2436L14.0289 25.7945L14.0526 25.7709L14.0398 25.7399L14.0398 25.7399L14.0398 25.7399L14.0398 25.7399L14.0398 25.7397L14.0395 25.7391L14.0384 25.7364L14.034 25.7252C14.0301 25.7153 14.0244 25.7004 14.0172 25.6807C14.0027 25.6415 13.9823 25.5834 13.9586 25.5088C13.9112 25.3594 13.8508 25.1437 13.799 24.8792L13.7911 24.8388H13.75H13.2626H13.2235L13.2141 24.8768C13.2084 24.8999 13.2027 24.9231 13.1969 24.9464C13.1324 25.2087 13.0645 25.4845 12.9394 25.7368L12.9215 25.7727L12.9528 25.7979L13.5097 26.247Z" fill="#6C00FF" stroke="#6C00FF" stroke-width="0.1"/>
<path d="M21.5625 20.344L21.5624 20.3442L18.3677 23.5577C18.3677 23.5577 18.3676 23.5577 18.3676 23.5578C18.3184 23.6067 18.2469 23.6066 18.1978 23.5577C18.1487 23.5089 18.1487 23.4381 18.1978 23.3893L18.198 23.3891L21.3926 20.1756C21.3926 20.1756 21.3927 20.1755 21.3927 20.1755C21.4419 20.1266 21.5134 20.1267 21.5625 20.1756L21.5772 20.1901H21.5978C21.598 20.1901 21.5985 20.1902 21.5996 20.1907C21.6007 20.1913 21.6027 20.1927 21.6051 20.1959C21.61 20.2023 21.6165 20.2166 21.6165 20.2427C21.6165 20.289 21.5964 20.3103 21.5625 20.344Z" fill="#6C00FF" stroke="#6C00FF" stroke-width="0.1"/>
<path d="M21.3959 27.8241L21.3957 27.824L18.1976 24.6138C18.1976 24.6138 18.1975 24.6137 18.1975 24.6137C18.1487 24.5641 18.1488 24.4919 18.1976 24.4423C18.2461 24.3932 18.3161 24.3932 18.3646 24.4423L18.3646 24.4423L18.3647 24.4425L21.5629 27.6527C21.5629 27.6527 21.5629 27.6528 21.5629 27.6528C21.5806 27.6707 21.5948 27.6853 21.605 27.6991C21.6156 27.7134 21.6165 27.72 21.6165 27.7212C21.6165 27.7685 21.5963 27.7903 21.5629 27.8241C21.5144 27.8733 21.4444 27.8733 21.3959 27.8241Z" fill="#6C00FF" stroke="#6C00FF" stroke-width="0.1"/>
<path d="M28.8646 29.7892L28.8648 29.789L32.0595 26.5755C32.0595 26.5755 32.0595 26.5754 32.0596 26.5754C32.1088 26.5265 32.1802 26.5266 32.2294 26.5755C32.2416 26.5876 32.2559 26.6083 32.2672 26.6309C32.2794 26.655 32.2834 26.6719 32.2834 26.6768C32.2834 26.7231 32.2633 26.7444 32.2294 26.7781L29.0346 29.9576C28.9854 30.0066 28.9138 30.0066 28.8646 29.9576C28.8156 29.9088 28.8156 29.838 28.8646 29.7892Z" fill="#6C00FF" stroke="#6C00FF" stroke-width="0.1"/>
<path d="M32.0628 34.9355L32.0626 34.9353L28.8645 31.7251C28.8644 31.7251 28.8644 31.7251 28.8644 31.725C28.8156 31.6755 28.8156 31.6032 28.8645 31.5537C28.9129 31.5045 28.983 31.5045 29.0314 31.5537L29.0314 31.5537L29.0316 31.5539L32.2299 34.7642L32.2446 34.7789H32.2585C32.2613 34.7817 32.265 34.7864 32.2691 34.7932C32.2736 34.8008 32.2774 34.8094 32.28 34.8174C32.2828 34.8258 32.2834 34.8311 32.2834 34.8325C32.2834 34.8798 32.2631 34.9016 32.2297 34.9355C32.1813 34.9846 32.1112 34.9846 32.0628 34.9355Z" fill="#6C00FF" stroke="#6C00FF" stroke-width="0.1"/>
<path d="M32.2294 13.9441L32.2292 13.9443L29.0346 17.1578C29.0345 17.1578 29.0345 17.1579 29.0345 17.1579C28.9853 17.2068 28.9138 17.2067 28.8646 17.1578C28.8156 17.109 28.8156 17.0382 28.8646 16.9894L28.8648 16.9892L32.0595 13.7757C32.0595 13.7757 32.0595 13.7756 32.0596 13.7756C32.1088 13.7267 32.1802 13.7268 32.2294 13.7757C32.2472 13.7934 32.2617 13.8079 32.272 13.8216C32.2827 13.8359 32.2834 13.8421 32.2834 13.8428C32.2834 13.8891 32.2633 13.9104 32.2294 13.9441Z" fill="#6C00FF" stroke="#6C00FF" stroke-width="0.1"/>
<path d="M32.0628 21.4242L32.0626 21.4241L28.8645 18.2139C28.8644 18.2139 28.8644 18.2138 28.8644 18.2138C28.8156 18.1642 28.8156 18.092 28.8645 18.0424C28.9129 17.9933 28.983 17.9933 29.0314 18.0424L29.0314 18.0424L29.0316 18.0426L32.2297 21.2528C32.2298 21.2528 32.2298 21.2529 32.2298 21.2529C32.2474 21.2708 32.2617 21.2854 32.2719 21.2992C32.2825 21.3135 32.2834 21.3201 32.2834 21.3213C32.2834 21.3686 32.2631 21.3904 32.2297 21.4242C32.1813 21.4734 32.1112 21.4734 32.0628 21.4242Z" fill="#6C00FF" stroke="#6C00FF" stroke-width="0.1"/>
</svg>
