<svg width="39" height="39" viewBox="0 0 39 39" fill="none" xmlns="http://www.w3.org/2000/svg">
<path d="M11.5546 0.00756836C5.34394 0.00756836 0.291992 5.06419 0.291992 11.2764V27.3703C0.291992 33.5809 5.34862 38.6329 11.5609 38.6329H27.6547C33.8654 38.6329 38.9173 33.5763 38.9173 27.364V11.2701C38.9173 5.05951 33.8607 0.00756836 27.6485 0.00756836H11.5546ZM30.8704 6.44512C31.7588 6.44512 32.4798 7.16613 32.4798 8.05451C32.4798 8.94289 31.7588 9.6639 30.8704 9.6639C29.982 9.6639 29.261 8.94289 29.261 8.05451C29.261 7.16613 29.982 6.44512 30.8704 6.44512ZM19.6047 9.6639C24.9301 9.6639 29.261 13.9948 29.261 19.3202C29.261 24.6457 24.9301 28.9766 19.6047 28.9766C14.2792 28.9766 9.94832 24.6457 9.94832 19.3202C9.94832 13.9948 14.2792 9.6639 19.6047 9.6639ZM19.6047 12.8827C17.8973 12.8827 16.2599 13.5609 15.0526 14.7682C13.8453 15.9755 13.1671 17.6129 13.1671 19.3202C13.1671 21.0276 13.8453 22.665 15.0526 23.8723C16.2599 25.0795 17.8973 25.7578 19.6047 25.7578C21.312 25.7578 22.9494 25.0795 24.1567 23.8723C25.364 22.665 26.0422 21.0276 26.0422 19.3202C26.0422 17.6129 25.364 15.9755 24.1567 14.7682C22.9494 13.5609 21.312 12.8827 19.6047 12.8827Z" fill="#6C00FF"/>
</svg>
