<svg width="36" height="37" viewBox="0 0 36 37" fill="none" xmlns="http://www.w3.org/2000/svg">
<path d="M32.2434 0.616943H3.27444C1.49607 0.616943 0.0556641 2.05735 0.0556641 3.83572V32.8047C0.0556641 34.5831 1.49607 36.0235 3.27444 36.0235H32.2434C34.0218 36.0235 35.4622 34.5831 35.4622 32.8047V3.83572C35.4622 2.05735 34.0218 0.616943 32.2434 0.616943ZM11.2474 29.5859H6.49965V14.3096H11.2474V29.5859ZM8.82522 12.1257C7.29469 12.1257 6.05707 10.8848 6.05707 9.35753C6.05707 7.83022 7.2963 6.59099 8.82522 6.59099C10.3509 6.59099 11.5918 7.83183 11.5918 9.35753C11.5918 10.8848 10.3509 12.1257 8.82522 12.1257ZM29.0311 29.5859H24.2866V22.157C24.2866 20.3851 24.2544 18.1062 21.8194 18.1062C19.349 18.1062 18.9692 20.0358 18.9692 22.0282V29.5859H14.2247V14.3096H18.7793V16.397H18.8437C19.4778 15.1964 21.026 13.9298 23.3355 13.9298C28.1427 13.9298 29.0311 17.0939 29.0311 21.2075V29.5859Z" fill="#6C00FF"/>
</svg>
