<svg width="47" height="47" viewBox="0 0 47 47" fill="none" xmlns="http://www.w3.org/2000/svg">
<path fill-rule="evenodd" clip-rule="evenodd" d="M8.32684 11.2992C9.13784 10.2846 10.0482 9.35527 11.0424 8.52599L8.14358 5.57959C7.16387 6.42627 6.25525 7.35387 5.42627 8.35196L8.32684 11.2992Z" fill="#6F00FF"/>
<path fill-rule="evenodd" clip-rule="evenodd" d="M12.3345 2.69668L15.3901 5.80146C16.702 5.20974 18.0928 4.76421 19.5409 4.48663L16.1788 1.06946C14.8411 1.49584 13.5557 2.04231 12.3345 2.69668Z" fill="#6F00FF"/>
<path fill-rule="evenodd" clip-rule="evenodd" d="M16.1787 1.06944L19.5409 4.48661C20.6919 4.26558 21.8788 4.14985 23.0923 4.14985C24.573 4.14985 26.0151 4.32215 27.3982 4.64759L30.6919 1.30004C28.312 0.457711 25.7548 0 23.0923 0C20.6841 0 18.3616 0.375044 16.1787 1.06944Z" fill="#6F00FF"/>
<path fill-rule="evenodd" clip-rule="evenodd" d="M15.3903 5.80143L12.3347 2.69666C10.8317 3.50156 9.42727 4.47094 8.14355 5.57954L11.0424 8.52594C12.3561 7.43039 13.8171 6.51062 15.3903 5.80143Z" fill="#6F00FF"/>
<path fill-rule="evenodd" clip-rule="evenodd" d="M8.32663 11.2992L5.42605 8.35193C2.04076 12.4348 0 17.7072 0 23.4642C0 26.1696 0.450458 28.7679 1.27944 31.1861L4.57395 27.8394C4.25366 26.4341 4.0841 24.9687 4.0841 23.4642C4.0841 18.854 5.67355 14.6207 8.32663 11.2992Z" fill="#6F00FF"/>
<path fill-rule="evenodd" clip-rule="evenodd" d="M9.5257 36.9927C8.09811 35.5143 6.9026 33.8044 5.99911 31.924L2.97607 34.9957C3.98147 36.8013 5.21466 38.4589 6.63712 39.9269L9.5257 36.9927Z" fill="#6F00FF"/>
<path fill-rule="evenodd" clip-rule="evenodd" d="M2.97579 34.9958L5.99883 31.9241C5.38052 30.6362 4.89923 29.2683 4.57381 27.8395L1.2793 31.1862C1.73489 32.5149 2.30439 33.788 2.97579 34.9958Z" fill="#6F00FF"/>
<path fill-rule="evenodd" clip-rule="evenodd" d="M9.52579 36.9928L6.63721 39.927C7.54069 40.859 8.5204 41.7152 9.56604 42.4836L12.4992 39.5041C11.4253 38.7697 10.4284 37.9274 9.52579 36.9928Z" fill="#6F00FF"/>
<path fill-rule="evenodd" clip-rule="evenodd" d="M12.499 39.504L9.56592 42.4835C13.3674 45.2802 18.0407 46.9283 23.0925 46.9283C28.7583 46.9283 33.9472 44.8556 37.9653 41.4149L35.0648 38.4677C31.7968 41.1634 27.6305 42.7785 23.0925 42.7785C19.1703 42.7785 15.5264 41.5716 12.499 39.504Z" fill="#6F00FF"/>
<path fill-rule="evenodd" clip-rule="evenodd" d="M9.52539 36.9927C10.428 37.9273 11.4249 38.7696 12.4988 39.5041L24.2912 27.5209L21.5687 24.7546L9.52539 36.9927Z" fill="#6F00FF"/>
<path fill-rule="evenodd" clip-rule="evenodd" d="M14.5894 17.6628L17.3118 20.429L20.0343 17.6628L17.3118 14.8965L14.5894 17.6628Z" fill="#6F00FF"/>
<path fill-rule="evenodd" clip-rule="evenodd" d="M20.8262 11.3252L23.5486 14.0915L26.2711 11.3252L23.5486 8.55896L20.8262 11.3252Z" fill="#6F00FF"/>
<path fill-rule="evenodd" clip-rule="evenodd" d="M23.5491 14.0916L20.8266 11.3253L17.312 14.8965L20.0345 17.6628L23.5491 14.0916Z" fill="#6F00FF"/>
<path fill-rule="evenodd" clip-rule="evenodd" d="M26.2713 11.3253L23.5488 14.0916L27.8059 18.4172L30.5284 15.6509L26.2713 11.3253Z" fill="#6F00FF"/>
<path fill-rule="evenodd" clip-rule="evenodd" d="M30.5286 15.6509L27.8062 18.4172L30.5286 21.1834L33.251 18.4172L30.5286 15.6509Z" fill="#6F00FF"/>
<path fill-rule="evenodd" clip-rule="evenodd" d="M33.2508 18.4172L30.5283 21.1835L40.4761 31.2906C41.0584 29.9575 41.496 28.5452 41.7701 27.0728L33.2508 18.4172Z" fill="#6F00FF"/>
<path fill-rule="evenodd" clip-rule="evenodd" d="M41.7701 27.0728C41.496 28.5451 41.0584 29.9574 40.4761 31.2905L43.5317 34.3953C44.1748 33.1553 44.7126 31.8491 45.1322 30.4891L41.7701 27.0728Z" fill="#6F00FF"/>
<path fill-rule="evenodd" clip-rule="evenodd" d="M43.5317 34.3953L40.4761 31.2905C39.7773 32.889 38.8721 34.3735 37.7939 35.7084L40.6937 38.6548C41.7847 37.3504 42.7387 35.9225 43.5317 34.3953Z" fill="#6F00FF"/>
<path fill-rule="evenodd" clip-rule="evenodd" d="M40.694 38.6548L37.7942 35.7084C36.9781 36.7186 36.0635 37.6436 35.0649 38.4677L37.9655 41.415C38.9486 40.5735 39.8615 39.6494 40.694 38.6548Z" fill="#6F00FF"/>
<path fill-rule="evenodd" clip-rule="evenodd" d="M41.7699 27.0728L45.1321 30.4891C45.8164 28.2711 46.1846 25.912 46.1846 23.4642C46.1846 18.3311 44.5626 13.5825 41.8102 9.71985L38.8779 12.7002C40.9127 15.7762 42.1005 19.4788 42.1005 23.4642C42.1005 24.6973 41.9875 25.9042 41.7699 27.0728Z" fill="#6F00FF"/>
<path fill-rule="evenodd" clip-rule="evenodd" d="M38.8783 12.7001L41.8105 9.71976C41.0543 8.65728 40.2117 7.66181 39.2945 6.74377L36.4067 9.67887C37.3265 10.596 38.1555 11.6089 38.8783 12.7001Z" fill="#6F00FF"/>
<path fill-rule="evenodd" clip-rule="evenodd" d="M36.4064 9.67888L39.2941 6.74379C37.8494 5.29843 36.218 4.04539 34.441 3.0238L31.418 6.09551C33.2686 7.01354 34.9514 8.2283 36.4064 9.67888Z" fill="#6F00FF"/>
<path fill-rule="evenodd" clip-rule="evenodd" d="M31.4183 6.09557L34.4413 3.02386C33.2527 2.34165 31.9998 1.76298 30.6921 1.30005L27.3984 4.6476C28.8046 4.97827 30.1509 5.46731 31.4183 6.09557Z" fill="#6F00FF"/>
<path fill-rule="evenodd" clip-rule="evenodd" d="M27.0137 24.7547L24.2913 21.9884L21.5688 24.7547L24.2913 27.521L27.0137 24.7547Z" fill="#6F00FF"/>
<path fill-rule="evenodd" clip-rule="evenodd" d="M27.0135 24.7546L24.291 27.5209L35.0643 38.4677C36.0629 37.6436 36.9775 36.7186 37.7936 35.7084L27.0135 24.7546Z" fill="#6F00FF"/>
<path fill-rule="evenodd" clip-rule="evenodd" d="M5.99875 31.924L17.3116 20.429L14.5891 17.6627L4.57373 27.8394C4.89916 29.2682 5.38044 30.6361 5.99875 31.924Z" fill="#6F00FF"/>
<path fill-rule="evenodd" clip-rule="evenodd" d="M42.0752 42.8273V45.4056L43.5961 46.9771H45.8467V43.7705L44.9338 42.8273H42.0752Z" fill="#6F00FF"/>
</svg>
