<svg width="48" height="48" viewBox="0 0 48 48" fill="none" xmlns="http://www.w3.org/2000/svg">
<path d="M29.7709 11.7325C29.8288 11.6725 29.8864 11.6124 29.9439 11.552M29.7709 11.7325C29.7394 11.7035 29.708 11.6746 29.6765 11.6456L29.6688 11.6385L29.669 11.6384L29.6687 11.6381L29.6685 11.6379L29.6682 11.6376L29.668 11.6374L29.6678 11.6372L29.6675 11.6369L29.6673 11.6367L29.6671 11.6365L29.6668 11.6362L29.6666 11.636L29.6664 11.6358L29.6661 11.6355L29.6659 11.6353L29.6657 11.6351L29.6654 11.6348L29.6652 11.6346L29.665 11.6344L29.6648 11.6342L29.6645 11.6339L29.6643 11.6337L29.6641 11.6335L29.6639 11.6333L29.6636 11.633L29.6634 11.6328L29.6632 11.6326L29.663 11.6324L29.6628 11.6322L29.6626 11.632L29.6623 11.6317L29.6621 11.6315L29.6619 11.6313L29.6617 11.6311L29.6615 11.6309L29.6613 11.6307L29.6611 11.6305L29.6608 11.6303L29.6606 11.63L29.6604 11.6298L29.6602 11.6296L29.66 11.6294L29.6598 11.6292L29.6596 11.629L29.6594 11.6288L29.6592 11.6286L29.659 11.6284L29.6588 11.6282L29.6586 11.628L29.6584 11.6278L29.6582 11.6276L29.658 11.6274L29.6578 11.6272L29.6576 11.627L29.6574 11.6268L29.6572 11.6266L29.657 11.6264L29.6568 11.6262L29.6566 11.626L29.6564 11.6258L29.6562 11.6256L29.656 11.6254L29.6558 11.6252L29.6557 11.6251L29.6555 11.6249L29.6553 11.6247L29.6551 11.6245L29.6549 11.6243L29.6547 11.6241L29.6545 11.6239L29.6543 11.6237L29.6542 11.6236L29.654 11.6234L29.6538 11.6232L29.6536 11.623L29.6534 11.6228L29.6532 11.6226L29.6531 11.6225L29.6529 11.6223L29.6527 11.6221L29.6525 11.6219L29.6523 11.6217L29.6522 11.6216L29.652 11.6214L29.6518 11.6212L29.6516 11.621L29.6515 11.6209L29.6513 11.6207L29.6511 11.6205L29.6509 11.6203L29.6508 11.6202L29.6506 11.62L29.6504 11.6198L29.6503 11.6197L29.6501 11.6195L29.6499 11.6193L29.6497 11.6192L29.6496 11.619L29.6494 11.6188L29.6492 11.6186L29.6491 11.6185L29.6489 11.6183L29.6487 11.6182L29.6486 11.618L29.6484 11.6178L29.6483 11.6177L29.6481 11.6175L29.6479 11.6173L29.6478 11.6172L29.6476 11.617L29.6474 11.6168L29.6473 11.6167L29.6471 11.6165L29.647 11.6164L29.6468 11.6162L29.6467 11.6161L29.6465 11.6159L29.6463 11.6157L29.6462 11.6156L29.646 11.6154L29.6459 11.6153L29.6457 11.6151L29.6456 11.615L29.6454 11.6148L29.6453 11.6147L29.6451 11.6145L29.6449 11.6143L29.6448 11.6142L29.6446 11.614L29.6445 11.6139L29.6443 11.6137L29.6442 11.6136L29.644 11.6134L29.6439 11.6133L29.6437 11.6131L29.6436 11.613L29.6434 11.6128L29.6433 11.6127L29.6431 11.6126L29.643 11.6124L29.6429 11.6123L29.6427 11.6121L29.6426 11.612L29.6424 11.6118L29.6423 11.6117L29.6421 11.6115L29.642 11.6114L29.6418 11.6112L29.6417 11.6111L29.6416 11.611L29.6414 11.6108L29.6413 11.6107L29.6411 11.6105L29.641 11.6104L29.6409 11.6103L29.6407 11.6101L29.6406 11.61L29.6404 11.6098L29.6403 11.6097L29.6402 11.6096L29.64 11.6094L29.6399 11.6093L29.6397 11.6091L29.6396 11.609L29.6395 11.6089L29.6393 11.6087L29.6392 11.6086L29.6391 11.6085L29.6389 11.6083L29.6388 11.6082L29.6387 11.6081L29.6385 11.6079L29.6384 11.6078L29.6383 11.6077L29.6381 11.6075L29.638 11.6074L29.6379 11.6073L29.6377 11.6071L29.6376 11.607L29.6375 11.6069L29.6373 11.6067L29.6372 11.6066L29.6371 11.6065L29.6369 11.6063L29.6368 11.6062L29.6367 11.6061L29.6365 11.6059L29.6364 11.6058L29.6363 11.6057L29.6362 11.6056L29.636 11.6054L29.6359 11.6053L29.6358 11.6052L29.6356 11.605L29.6355 11.6049L29.6354 11.6048L29.6353 11.6047L29.6351 11.6045L29.635 11.6044L29.6349 11.6043L29.6347 11.6041L29.6346 11.604L29.6345 11.6039L29.6344 11.6038L29.6342 11.6036L29.6341 11.6035L29.634 11.6034L29.6339 11.6033L29.6337 11.6031L29.6336 11.603L29.6335 11.6029L29.6334 11.6028L29.6332 11.6026L29.6331 11.6025L29.633 11.6024L29.6329 11.6023L29.6327 11.6021L29.6326 11.602L29.6325 11.6019L29.6324 11.6018L29.6322 11.6016L29.6321 11.6015L29.632 11.6014L29.6319 11.6013L29.6318 11.6012L29.6316 11.601L29.6315 11.6009L29.6314 11.6008L29.6313 11.6007L29.6311 11.6005L29.631 11.6004L29.6309 11.6003L29.6308 11.6002L29.6307 11.6001L29.6305 11.5999L29.6304 11.5998L29.6303 11.5997L29.6302 11.5996L29.63 11.5994L29.6299 11.5993L29.6298 11.5992L29.6297 11.5991L29.6296 11.599L29.6294 11.5988L29.6293 11.5987L29.6292 11.5986L29.6291 11.5985L29.629 11.5984L29.6288 11.5982L29.6287 11.5981L29.6286 11.598L29.6285 11.5979L29.6284 11.5978L29.6282 11.5976L29.6281 11.5975L29.628 11.5974L29.6279 11.5973L29.6277 11.5971L29.6276 11.597L29.6275 11.5969L29.6274 11.5968L29.6273 11.5967L29.6271 11.5965L29.627 11.5964L29.6269 11.5963L29.6268 11.5962L29.6267 11.5961L29.6265 11.5959L29.6264 11.5958L29.6263 11.5957L29.6262 11.5956L29.6261 11.5955L29.6259 11.5953L29.6258 11.5952L29.6257 11.5951L29.6256 11.595L29.6254 11.5949L29.6253 11.5947L29.6252 11.5946L29.6251 11.5945L29.625 11.5944L29.6248 11.5942L29.6247 11.5941L29.6246 11.594L29.6245 11.5939L29.6244 11.5938L29.6242 11.5936L29.6241 11.5935L29.624 11.5934L29.6239 11.5933L29.6237 11.5931L29.6236 11.593L29.6235 11.5929L29.6234 11.5928L29.6232 11.5927L29.6231 11.5925L29.623 11.5924L29.6229 11.5923L29.6228 11.5922L29.6226 11.592L29.6225 11.5919L29.6224 11.5918L29.6223 11.5917L29.6221 11.5915L29.622 11.5914L29.6219 11.5913L29.6218 11.5912L29.6216 11.591L29.6215 11.5909L29.6214 11.5908L29.6213 11.5907L29.6211 11.5905L29.621 11.5904L29.6209 11.5903L29.6208 11.5902L29.6206 11.59L29.6205 11.5899L29.6204 11.5898L29.6202 11.5896L29.6201 11.5895L29.62 11.5894L29.6199 11.5893L29.6197 11.5891L29.6196 11.589L29.6195 11.5889L29.6193 11.5887L29.6192 11.5886L29.6191 11.5885L29.619 11.5884L29.6188 11.5882L29.6187 11.5881L29.6186 11.588L29.6184 11.5878L29.6183 11.5877L29.6182 11.5876L29.618 11.5874L29.6179 11.5873L29.6178 11.5872L29.6176 11.587L29.6175 11.5869L29.6174 11.5868L29.6172 11.5866L29.6171 11.5865L29.617 11.5864L29.6168 11.5862L29.6167 11.5861L29.6166 11.586L29.6164 11.5858L29.6163 11.5857L29.6162 11.5856L29.616 11.5854L29.6159 11.5853L29.6157 11.5852L29.6156 11.585L29.6155 11.5849L29.6153 11.5847L29.6152 11.5846L29.6151 11.5845L29.6149 11.5843L29.6148 11.5842L29.6146 11.584L29.6145 11.5839L29.6144 11.5838L29.6142 11.5836L29.6141 11.5835L29.6139 11.5833L29.6138 11.5832L29.6136 11.5831L29.6135 11.5829L29.6134 11.5828L29.6132 11.5826L29.6131 11.5825L29.6129 11.5823L29.6128 11.5822L29.6126 11.582L29.6125 11.5819L29.6123 11.5817L29.6122 11.5816L29.612 11.5815L29.6119 11.5813L29.6118 11.5812L29.6116 11.581L29.6115 11.5809L29.6113 11.5807L29.6112 11.5806L29.611 11.5804L29.6109 11.5803L29.6107 11.5801L29.6105 11.58L29.6104 11.5798L29.6102 11.5796L29.6101 11.5795L29.6099 11.5793L29.6098 11.5792L29.6096 11.579L29.6095 11.5789L29.6093 11.5787L29.6092 11.5786L29.609 11.5784L29.6088 11.5782L29.6087 11.5781L29.6085 11.5779L29.6084 11.5778L29.6082 11.5776L29.608 11.5774L29.6079 11.5773L29.6077 11.5771L29.6076 11.577L29.6074 11.5768L29.6072 11.5766L29.6071 11.5765L29.6069 11.5763L29.6067 11.5761L29.6066 11.576L29.6064 11.5758L29.6062 11.5757L29.6061 11.5755L29.6059 11.5753L29.6057 11.5751L29.6056 11.575L29.6054 11.5748L29.6052 11.5746L29.6051 11.5745L29.6049 11.5743L29.6047 11.5741L29.6046 11.574L29.6044 11.5738L29.6042 11.5736L29.604 11.5734L29.6039 11.5733L29.6037 11.5731L29.6035 11.5729L29.6033 11.5727L29.6031 11.5726L29.603 11.5724L29.6028 11.5722L29.6026 11.572L29.6024 11.5718L29.6023 11.5717L29.6021 11.5715L29.6019 11.5713L29.6017 11.5711L29.6015 11.5709L29.6013 11.5707L29.6012 11.5706L29.601 11.5704L29.6008 11.5702L29.6006 11.57L29.6004 11.5698L29.6002 11.5696L29.6 11.5694L29.5998 11.5692L29.5996 11.5691L29.5995 11.5689L29.5993 11.5687L29.5991 11.5685L29.5989 11.5683L29.5987 11.5681L29.5985 11.5679L29.5983 11.5677L29.5981 11.5675L29.5979 11.5673L29.5977 11.5671L29.5975 11.5669L29.5973 11.5667L29.5971 11.5665L29.5969 11.5663L29.5967 11.5661L29.5965 11.5659L29.5963 11.5657L29.5961 11.5655L29.5959 11.5653L29.5957 11.5651L29.5955 11.5649L29.5953 11.5647L29.5951 11.5645L29.5949 11.5643L29.5946 11.564L29.5944 11.5638L29.5942 11.5636L29.594 11.5634L29.5938 11.5632L29.5936 11.563L29.5934 11.5628L29.5932 11.5626L29.5929 11.5623L29.5927 11.5621L29.5925 11.5619L29.5923 11.5617L29.5921 11.5615L29.5918 11.5612L29.5916 11.561L29.5914 11.5608L29.5912 11.5606L29.591 11.5604L29.5907 11.5601L29.5905 11.5599L29.5903 11.5597L29.5903 11.5597C29.0935 12.0745 28.5841 12.5757 28.0797 13.0719C27.8004 13.3466 27.5226 13.6199 27.2494 13.8931C23.8757 17.2249 23.2295 17.957 22.5589 18.7168C21.9107 19.4513 21.2395 20.2117 18.0591 23.3719L29.9439 11.552M29.7709 11.7325C29.2712 12.2505 28.7572 12.7561 28.251 13.254C27.9725 13.528 27.6963 13.7997 27.4261 14.0699L27.425 14.071C24.1092 17.3456 23.4338 18.1035 22.7798 18.8443L22.7481 18.8802C22.0946 19.6207 21.4213 20.3834 18.2356 23.5489C17.7737 24.0108 17.3001 24.5642 16.8132 25.1331L16.8014 25.1469C16.3701 25.6509 15.9287 26.1661 15.485 26.626C16.0152 27.1558 16.4631 27.6014 16.8425 27.9784C16.9263 28.0618 17.0069 28.1418 17.0842 28.2187C17.3944 28.5269 17.6533 28.7841 17.8701 29.0009C18.2579 29.3887 18.5164 29.6523 18.6962 29.8514C22.1682 26.5655 25.5981 22.8918 28.7539 19.4124L28.7552 19.411C30.1411 17.9063 31.5276 16.2865 32.9175 14.6585L32.9174 14.6584C32.8609 14.6122 32.7924 14.5553 32.7225 14.4858C32.2076 14.0121 31.7032 13.5385 31.1998 13.0659L31.1995 13.0657C30.7254 12.6206 30.2523 12.1765 29.7709 11.7325ZM29.9439 11.552C30.4251 11.9958 30.8979 12.4396 31.3706 12.8834C31.8754 13.3573 32.3803 13.8313 32.8954 14.3052L29.9439 11.552ZM31.4367 10.3916L31.4367 10.3916L31.441 10.3911C31.708 10.3597 31.9877 10.4597 32.2725 10.6496C32.5536 10.837 32.8135 11.0944 33.0353 11.336C33.2085 11.5516 33.3837 11.7267 33.5996 11.8999C33.7864 12.066 33.9558 12.2176 34.0854 12.3703C34.2159 12.5241 34.2819 12.6521 34.2952 12.7643C34.3074 12.9077 34.2497 13.0754 34.1181 13.2776C34.0072 13.4478 33.861 13.6175 33.7046 13.7923C33.7 13.7878 33.6953 13.783 33.6904 13.7781L33.6851 13.7729C33.6407 13.7284 33.5808 13.6685 33.5072 13.6163C32.5653 12.714 31.5863 11.8119 30.6055 10.9451C30.9107 10.6055 31.1783 10.4174 31.4367 10.3916ZM33.6785 14.0992C33.6166 14.0579 33.5651 14.0064 33.5136 13.9549C33.4621 13.9034 33.4106 13.8519 33.3488 13.8107C32.3597 12.8628 31.3294 11.9149 30.2991 11.0083L33.6785 14.0992ZM16.62 17.9832L16.6199 17.9829L16.609 17.9872C14.9075 18.6445 12.6906 17.9035 11.7646 16.283L11.7647 16.2829L11.7601 16.2755C11.3463 15.607 11.1926 14.7666 11.2688 13.909L13.3846 16.1659L13.3845 16.166L13.3902 16.1717C13.6089 16.3904 13.9495 16.3838 14.1589 16.2441L14.1686 16.2377L14.1776 16.2304C15.0484 15.5255 15.918 14.7387 16.7815 13.9574L16.7844 13.9548L16.7846 13.9551L16.7934 13.9462L16.7949 13.9447C16.824 13.9156 16.8744 13.8652 16.911 13.7994C16.9542 13.7218 16.9738 13.6329 16.9622 13.5336C16.9516 13.4435 16.9165 13.355 16.87 13.2676C16.8228 13.1786 16.7562 13.0767 16.6691 12.9575C16.3472 12.5166 15.6769 11.7479 14.398 10.3222C15.2485 10.1504 16.1371 10.2896 16.912 10.6935C18.5863 11.5898 19.5899 13.6081 18.8546 15.6617C18.8357 15.7125 18.8147 15.7793 18.8139 15.8575C18.8129 15.941 18.8348 16.0165 18.8699 16.0874C18.9312 16.2107 19.0512 16.3518 19.2172 16.5375C19.2854 16.6139 19.3655 16.7021 19.4591 16.8052C19.8241 17.2072 20.3952 17.8362 21.2752 18.8783C20.6895 19.5545 20.1249 20.1251 19.4778 20.7435L17.259 18.1804L17.2531 18.1736L17.2467 18.1672C17.0828 18.0033 16.8644 17.9017 16.62 17.9832ZM12.7738 31.0752C12.7741 31.0744 12.7743 31.0737 12.7746 31.0729C13.1854 31.4126 13.5969 31.8342 13.9042 32.1838C13.3547 32.4259 12.7848 32.6278 12.1943 32.7895C12.3625 32.2041 12.539 31.6469 12.7678 31.0913L12.7711 31.0834L12.7738 31.0752ZM17.6985 30.5055C17.7355 30.5439 17.7696 30.5795 17.8005 30.612C17.7873 30.6185 17.7736 30.6252 17.7596 30.632C17.6963 30.6626 17.6198 30.6982 17.5439 30.7335C17.4496 30.7774 17.356 30.8209 17.2895 30.8542C16.8085 31.0864 16.5836 31.2238 16.3972 31.3376C16.3478 31.3678 16.3011 31.3963 16.2531 31.4245C16.0502 31.5436 15.8012 31.6708 15.1358 31.9313C14.7582 31.45 14.0079 30.6256 13.2243 30.0489C13.3757 29.7436 13.6554 29.2093 13.9501 28.6813C14.1345 28.3509 14.3227 28.0267 14.4868 27.766C14.564 27.6435 14.6346 27.5369 14.696 27.4513C15.2165 27.9739 16.0264 28.7934 16.7163 29.4969C17.1077 29.8961 17.4599 30.2572 17.6985 30.5055ZM35.5722 34.0302C35.5272 33.98 35.4829 33.9306 35.4394 33.882C34.2822 32.5899 33.6426 31.8757 33.2583 31.5104C33.0534 31.3157 32.8813 31.1789 32.7135 31.1339C32.6152 31.1076 32.5218 31.1128 32.4346 31.144C32.3571 31.1717 32.294 31.2171 32.2509 31.2495L32.244 31.2546L32.2375 31.2603C32.1935 31.2983 32.1496 31.3362 32.1057 31.374C31.2482 32.1144 30.4213 32.8282 29.669 33.5806C29.6658 33.5838 29.6623 33.5872 29.6586 33.5908C29.596 33.6525 29.4661 33.7806 29.4819 33.9834C29.489 34.0755 29.5245 34.1611 29.567 34.2389C29.6105 34.3183 29.6716 34.4077 29.7491 34.5105C29.9448 34.7704 30.2876 35.1709 30.8395 35.8156C31.068 36.0827 31.3325 36.3917 31.6372 36.7499C30.7962 36.7441 29.9834 36.4742 29.3363 35.9889L29.3337 35.9869C27.9079 34.9465 27.361 32.8109 28.0934 31.1859C28.1135 31.1456 28.1484 31.0745 28.1559 30.987C28.1644 30.8876 28.1368 30.7987 28.095 30.7175C28.0212 30.5742 27.8629 30.3827 27.6025 30.0847C27.4672 29.9299 27.2989 29.7405 27.0901 29.5056C26.4858 28.8258 25.5426 27.7647 24.0828 26.0595C24.7315 25.377 25.3913 24.6854 25.8795 24.19C27.5714 26.0911 28.5598 27.2553 29.1622 27.9647C29.3014 28.1287 29.4201 28.2684 29.522 28.3873C29.7933 28.7038 29.9642 28.8953 30.0952 28.996C30.1676 29.0515 30.2471 29.0954 30.342 29.1105C30.4325 29.1248 30.5113 29.1078 30.5594 29.0972L30.5698 29.0948L30.58 29.0916C33.7747 28.0886 36.5055 31.2173 35.5722 34.0302Z" stroke="#6C00FF" stroke-width="0.5"/>
</svg>
