<svg width="43" height="35" viewBox="0 0 43 35" fill="none" xmlns="http://www.w3.org/2000/svg">
<path d="M42.1421 4.34368C40.6019 5.02767 38.9475 5.48796 37.2109 5.69557C38.9845 4.63337 40.3444 2.95156 40.9849 0.946266C39.3273 1.9296 37.4893 2.64417 35.5323 3.03042C33.9664 1.36149 31.7358 0.318604 29.267 0.318604C24.5257 0.318604 20.6825 4.16343 20.6825 8.90308C20.6825 9.57581 20.7598 10.2324 20.9046 10.8585C13.7702 10.5012 7.44529 7.08286 3.20938 1.88776C2.47228 3.15596 2.04901 4.63016 2.04901 6.20575C2.04901 9.18312 3.56344 11.8112 5.86648 13.3498C4.45987 13.3048 3.13535 12.9185 1.9782 12.2764C1.9782 12.3134 1.9782 12.3472 1.9782 12.3842C1.9782 16.5445 4.93625 20.0143 8.86477 20.8013C8.14537 20.9976 7.38574 21.1022 6.60197 21.1022C6.04995 21.1022 5.5108 21.0475 4.98775 20.9494C6.08053 24.3596 9.25102 26.8429 13.0073 26.9121C10.0702 29.2152 6.36861 30.588 2.34514 30.588C1.6531 30.588 0.969111 30.5477 0.296387 30.4673C4.09615 32.9023 8.60727 34.3234 13.4564 34.3234C29.2477 34.3234 37.8804 21.2423 37.8804 9.89768C37.8804 9.52591 37.8724 9.15576 37.8563 8.7872C39.5349 7.57534 40.9914 6.06412 42.1421 4.34368Z" fill="#6C00FF"/>
</svg>
