<svg width="48" height="48" viewBox="0 0 48 48" fill="none" xmlns="http://www.w3.org/2000/svg">
<mask id="path-1-outside-1" maskUnits="userSpaceOnUse" x="9" y="12" width="29" height="23" fill="black">
<rect fill="white" x="9" y="12" width="29" height="23"/>
<path d="M16.2708 13C15.1384 13 14.2287 13.9117 14.2287 15.014V21.2434L13.5575 20.569C13.5101 20.5213 13.4454 20.4936 13.3773 20.4918C13.3092 20.4901 13.2431 20.5144 13.1932 20.5597L11.4195 22.2083C11.3938 22.2314 11.3732 22.2593 11.3588 22.2903C11.3444 22.3214 11.3365 22.3549 11.3357 22.389C11.3348 22.423 11.3409 22.4569 11.3536 22.4887C11.3664 22.5204 11.3855 22.5493 11.4099 22.5736L12.244 23.426C11.8917 23.9705 11.6383 24.573 11.477 25.2152H10.2595C10.224 25.2154 10.189 25.2226 10.1565 25.2364C10.1241 25.2503 10.0948 25.2704 10.0706 25.2957C10.0464 25.3209 10.0276 25.3507 10.0156 25.3833C10.0035 25.4158 9.99837 25.4504 10.0005 25.4849V27.883C10.001 27.9499 10.0284 28.0139 10.0768 28.0613C10.1253 28.1086 10.1908 28.1354 10.2593 28.1359H11.477C11.6393 28.7763 11.902 29.3737 12.2536 29.9157L11.4099 30.7775C11.3636 30.8263 11.3387 30.8908 11.3405 30.9574C11.3422 31.0239 11.3706 31.0871 11.4194 31.1334L13.1932 32.7914C13.2431 32.8367 13.3092 32.861 13.3773 32.8593C13.4454 32.8575 13.51 32.8299 13.5575 32.7821L14.4012 31.9297C14.9004 32.2117 15.4374 32.4285 16.012 32.5667V33.7469C16.0122 33.7809 16.0194 33.8144 16.0331 33.8456C16.0468 33.8768 16.0667 33.905 16.0917 33.9286C16.1167 33.9522 16.1463 33.9706 16.1787 33.9828C16.2111 33.9951 16.2457 34.0009 16.2804 33.9999H18.7157C18.7505 34.0009 18.785 33.9951 18.8174 33.9828C18.8498 33.9706 18.8794 33.9522 18.9044 33.9286C18.9294 33.905 18.9494 33.8768 18.9631 33.8456C18.9768 33.8144 18.9839 33.7809 18.9842 33.7469V32.5667C19.5587 32.4285 20.0957 32.2117 20.5949 31.9297L21.4387 32.7821C21.4861 32.8299 21.5508 32.8575 21.6189 32.8593C21.687 32.861 21.753 32.8367 21.803 32.7914L23.5767 31.1334C23.6256 31.0871 23.6539 31.0239 23.6557 30.9574C23.6575 30.8908 23.6326 30.8263 23.5863 30.7775L22.8868 30.0581H35.2647C36.2101 30.0581 36.9809 29.3155 36.9809 28.3907V28.2782C36.9877 28.2017 36.9905 28.1296 36.9905 28.0627V17.6181C36.9937 17.6162 36.9969 17.6142 37 17.6121V15.0361C37 13.9331 36.0779 13.0409 34.9482 13.0409H23.1361C23.0648 13.0344 22.9966 13.0316 22.9251 13.0316H16.2711L16.2708 13ZM16.2708 13.5152H22.9249C22.9281 13.5153 22.9313 13.5153 22.9345 13.5152C22.9853 13.5155 23.0362 13.5193 23.0879 13.5246C23.0911 13.5249 23.0943 13.5243 23.0975 13.5246C23.1493 13.5301 23.1985 13.5424 23.2509 13.5527C23.2541 13.5533 23.2573 13.5521 23.2605 13.5527C23.3688 13.5743 23.4783 13.6064 23.5865 13.6463C23.7002 13.6879 23.8121 13.7368 23.9221 13.7962C24.0298 13.8541 24.1281 13.9205 24.2289 13.9929C24.2311 13.9944 24.2363 13.9914 24.2385 13.9929C24.5382 14.2094 24.8007 14.487 24.9767 14.7891C25.0355 14.8905 25.0823 14.992 25.1205 15.0982L25.4177 15.9225C25.4298 15.9575 25.4494 15.9894 25.4753 16.0162C25.4785 16.0163 25.4817 16.0163 25.4849 16.0162C25.4878 16.0226 25.491 16.0288 25.4944 16.0349C25.4976 16.035 25.5008 16.035 25.504 16.0349C25.5071 16.0381 25.5103 16.0413 25.5136 16.0443C25.5168 16.0444 25.52 16.0444 25.5232 16.0443C25.5261 16.0507 25.5293 16.0569 25.5328 16.063C25.536 16.0631 25.5392 16.0631 25.5424 16.063C25.5455 16.0662 25.5487 16.0694 25.552 16.0724C25.5552 16.0725 25.5584 16.0725 25.5616 16.0724C25.5678 16.0758 25.5742 16.0789 25.5807 16.0817C25.5839 16.0818 25.5871 16.0818 25.5903 16.0817C25.5966 16.0851 25.603 16.0882 25.6095 16.0911C25.6127 16.0912 25.6159 16.0912 25.6191 16.0911C25.6223 16.0912 25.6255 16.0912 25.6287 16.0911C25.6319 16.0912 25.6351 16.0912 25.6383 16.0911C25.6447 16.0913 25.651 16.0913 25.6574 16.0911C25.6606 16.0912 25.6638 16.0912 25.667 16.0911H34.948C34.9977 16.0914 35.0433 16.0957 35.0918 16.1004C35.095 16.1007 35.0982 16.1001 35.1014 16.1004C35.1499 16.1054 35.1982 16.1193 35.2452 16.1285C35.2483 16.1291 35.2518 16.1279 35.2548 16.1285C35.3516 16.1481 35.4438 16.1766 35.5329 16.2128C35.6274 16.2509 35.7178 16.2891 35.8013 16.344C36.1276 16.557 36.3623 16.891 36.4437 17.2807C36.4537 17.3294 36.4578 17.3802 36.4629 17.4306C36.4681 17.481 36.4725 17.5286 36.4725 17.5805C36.4719 17.5898 36.4719 17.5992 36.4725 17.6086V28.0531C36.4725 28.126 36.469 28.1852 36.4629 28.2405C36.4624 28.2499 36.4624 28.2593 36.4629 28.2687V28.3811C36.4629 29.0309 35.9324 29.5426 35.2644 29.5426H22.954C23.0149 29.4325 23.0727 29.3194 23.1266 29.2054C23.1521 29.1517 23.1794 29.1006 23.2033 29.0461C23.2683 28.8976 23.3229 28.7511 23.3759 28.5965C23.4298 28.441 23.4792 28.2795 23.5197 28.1188H24.7374C24.7533 28.1202 24.7694 28.1202 24.7853 28.1188C24.7951 28.1162 24.8047 28.1131 24.8141 28.1095C24.867 28.0931 24.9132 28.0607 24.946 28.0169C24.9788 27.9731 24.9964 27.9202 24.9962 27.8659V25.4679C24.9957 25.401 24.9683 25.337 24.9198 25.2896C24.8714 25.2423 24.8059 25.2155 24.7374 25.215H23.5197C23.4398 24.8968 23.3293 24.5936 23.2033 24.2971C23.2022 24.2941 23.2045 24.2902 23.2033 24.2878C23.0758 23.9888 22.9288 23.6982 22.7527 23.426L23.5868 22.5736C23.6116 22.5495 23.6312 22.5208 23.6444 22.4892C23.6639 22.4347 23.6639 22.3752 23.6444 22.3206C23.6396 22.3044 23.6331 22.2888 23.6252 22.2738C23.6194 22.264 23.613 22.2546 23.606 22.2456C23.6031 22.2393 23.5999 22.2331 23.5964 22.227C23.5932 22.227 23.59 22.227 23.5868 22.227C23.5837 22.2239 23.5805 22.2208 23.5772 22.2178C23.5773 22.2147 23.5773 22.2116 23.5772 22.2085L21.8035 20.5598C21.7973 20.5564 21.7909 20.5533 21.7843 20.5505C21.756 20.5285 21.7234 20.5126 21.6885 20.5036C21.6505 20.4948 21.6109 20.4944 21.5728 20.5026C21.5346 20.5107 21.4988 20.527 21.4679 20.5505C21.4612 20.5564 21.4548 20.5626 21.4488 20.5692C21.4456 20.5691 21.4424 20.5691 21.4392 20.5692L20.5955 21.4216C20.0981 21.1392 19.5599 20.9243 18.9847 20.7847V19.595C18.9848 19.5919 18.9848 19.5888 18.9847 19.5857C18.9823 19.5599 18.9758 19.5346 18.9655 19.5107C18.9633 19.498 18.9601 19.4855 18.9559 19.4732C18.9499 19.4667 18.9435 19.4604 18.9368 19.4545C18.9159 19.4279 18.8898 19.4057 18.8601 19.3889C18.857 19.3857 18.8538 19.3826 18.8505 19.3796C18.8474 19.3764 18.8442 19.3733 18.8409 19.3702C18.8345 19.37 18.8281 19.37 18.8217 19.3702C18.8186 19.367 18.8154 19.3639 18.8121 19.3609C18.8089 19.3608 18.8057 19.3608 18.8025 19.3609C18.7994 19.3577 18.7962 19.3546 18.793 19.3515C18.7866 19.3513 18.7802 19.3513 18.7738 19.3515C18.7706 19.3515 18.7674 19.3515 18.7642 19.3515C18.761 19.3515 18.7578 19.3515 18.7546 19.3515C18.7515 19.3483 18.7483 19.3452 18.745 19.3422C18.7386 19.342 18.7322 19.342 18.7258 19.3422H16.2809C16.2376 19.3413 16.1948 19.3509 16.1563 19.3703C16.1463 19.3759 16.1367 19.3821 16.1275 19.389C16.121 19.3919 16.1146 19.395 16.1084 19.3984C16.1083 19.4015 16.1083 19.4046 16.1084 19.4077C16.1018 19.4106 16.0954 19.4137 16.0892 19.4171C16.0891 19.4202 16.0891 19.4233 16.0892 19.4264C16.0827 19.4293 16.0763 19.4324 16.07 19.4358C16.0699 19.4389 16.0699 19.442 16.07 19.4451C16.0667 19.4481 16.0635 19.4513 16.0604 19.4545C16.0534 19.4634 16.047 19.4728 16.0412 19.4826C16.0378 19.4887 16.0346 19.4949 16.0317 19.5013C16.0316 19.5044 16.0316 19.5075 16.0317 19.5106C16.0282 19.5168 16.025 19.523 16.0221 19.5294C16.022 19.5325 16.022 19.5356 16.0221 19.5387C16.022 19.5418 16.022 19.545 16.0221 19.5481C16.0188 19.5511 16.0156 19.5542 16.0125 19.5574C16.0122 19.5637 16.0122 19.5699 16.0125 19.5762C16.0122 19.5824 16.0122 19.5887 16.0125 19.5949C16.0124 19.598 16.0124 19.6011 16.0125 19.6043V20.7845C15.9017 20.8115 15.794 20.8454 15.6865 20.8782C15.6257 20.8965 15.5642 20.9144 15.5043 20.9344C15.4235 20.962 15.3438 20.9973 15.2646 21.0281C15.2367 21.0387 15.2061 21.0452 15.1783 21.0562C15.1373 21.0728 15.0943 21.0949 15.0537 21.1124C14.9529 21.1551 14.8546 21.1958 14.7565 21.2435V15.0141C14.7565 14.1843 15.4235 13.5153 16.2714 13.5153L16.2708 13.5152ZM24.478 13.5152H29.6459C29.7523 13.5152 29.8523 13.533 29.9527 13.5527C30.0528 13.5724 30.1485 13.5996 30.2403 13.637C30.3357 13.6751 30.4242 13.7132 30.5088 13.7681C30.9167 14.0345 31.1799 14.4865 31.1799 15.0046V15.576H25.8586L25.6189 14.9297C25.5442 14.722 25.4391 14.5329 25.3121 14.3489C25.3082 14.3431 25.3065 14.336 25.3025 14.3302C25.2658 14.2777 25.2278 14.221 25.1875 14.1709C25.1793 14.1605 25.167 14.1532 25.1587 14.1428C25.1206 14.0967 25.0846 14.0463 25.0437 14.0023C25.0317 13.9891 25.0175 13.9779 25.0053 13.9648C24.9657 13.9236 24.9322 13.8822 24.8903 13.8431C24.8752 13.8286 24.8577 13.8198 24.8423 13.8056C24.8043 13.7715 24.7668 13.7349 24.7273 13.7026C24.6492 13.6374 24.5618 13.5726 24.478 13.5152V13.5152ZM31.0072 13.5152H34.9478C35.7995 13.5152 36.4723 14.1736 36.4723 15.0046V16.2598C36.096 15.8431 35.5502 15.576 34.9383 15.576H31.7073V15.0047C31.7073 14.9294 31.7061 14.8622 31.6977 14.7892C31.6902 14.7264 31.6825 14.6625 31.6689 14.6019C31.6668 14.592 31.6616 14.5835 31.6593 14.5738C31.6464 14.5203 31.6288 14.4661 31.6114 14.4145C31.4975 14.0622 31.2861 13.7535 31.0073 13.5153L31.0072 13.5152ZM16.146 14.6018V16.0631H17.4787V14.6018H16.146ZM18.7922 14.6018V16.0631H20.1249V14.6018H18.7922ZM21.4384 14.6018V16.0631H22.7807V14.6018H21.4384ZM16.539 19.8568H18.4566V20.9621C18.456 20.9715 18.456 20.9809 18.4566 20.9902C18.4565 20.9933 18.4565 20.9964 18.4566 20.9996C18.4563 21.0058 18.4563 21.0121 18.4566 21.0183C18.4597 21.0215 18.4629 21.0246 18.4661 21.0277C18.4661 21.0308 18.4661 21.0339 18.4661 21.037C18.4733 21.0568 18.483 21.0757 18.4949 21.0932C18.4948 21.0963 18.4948 21.0994 18.4949 21.1026C18.498 21.1058 18.5012 21.1089 18.5045 21.1119C18.5044 21.115 18.5044 21.1182 18.5045 21.1213C18.5076 21.1245 18.5108 21.1276 18.5141 21.1306C18.5172 21.1338 18.5204 21.1369 18.5237 21.14C18.5268 21.1432 18.53 21.1463 18.5333 21.1493C18.5393 21.1559 18.5457 21.1621 18.5524 21.168C18.5556 21.1681 18.5588 21.1681 18.562 21.168C18.5681 21.1746 18.5745 21.1809 18.5812 21.1868C18.5875 21.1902 18.5938 21.1933 18.6004 21.1961C18.6157 21.2039 18.6317 21.2102 18.6483 21.2149C18.6515 21.2149 18.6547 21.2149 18.6579 21.2149C18.6611 21.2149 18.6643 21.2149 18.6675 21.2149C18.9999 21.2825 19.3193 21.3823 19.6263 21.5053C19.629 21.5065 19.6331 21.5041 19.6359 21.5053C19.7865 21.5659 19.9325 21.6386 20.0769 21.7113C20.0795 21.7125 20.0839 21.7101 20.0865 21.7113C20.2308 21.7843 20.3705 21.8613 20.5083 21.9455C20.5107 21.947 20.5156 21.944 20.5179 21.9455C20.5209 21.9519 20.5241 21.9581 20.5275 21.9643C20.5307 21.9643 20.5339 21.9643 20.5371 21.9643C20.5434 21.9676 20.5498 21.9707 20.5563 21.9735C20.5595 21.9736 20.5627 21.9736 20.5659 21.9735C20.569 21.9767 20.5722 21.9798 20.5755 21.9828C20.5786 21.9829 20.5818 21.9829 20.585 21.9828C20.5914 21.9831 20.5978 21.9831 20.6042 21.9828C20.6074 21.9829 20.6106 21.9829 20.6138 21.9828C20.6201 21.9862 20.6265 21.9893 20.633 21.9921C20.6362 21.9922 20.6394 21.9922 20.6426 21.9921C20.7097 21.994 20.7749 21.9705 20.8247 21.9266C20.8315 21.9206 20.8379 21.9144 20.8439 21.9078L21.6301 21.1116L23.0299 22.4043L22.2341 23.2099C22.2274 23.2158 22.221 23.222 22.2149 23.2285C22.2149 23.2316 22.2149 23.2347 22.2149 23.2378C22.1833 23.2794 22.1654 23.3296 22.1636 23.3815C22.1619 23.4334 22.1765 23.4846 22.2054 23.5282C22.6183 24.1186 22.9223 24.7978 23.0779 25.5234C23.0805 25.5329 23.0837 25.5423 23.0875 25.5515C23.0904 25.5579 23.0936 25.5641 23.097 25.5701C23.1018 25.5863 23.1083 25.602 23.1162 25.6169C23.1223 25.6235 23.1287 25.6297 23.1354 25.6355C23.1353 25.6386 23.1353 25.6417 23.1354 25.6448C23.1416 25.6482 23.148 25.6513 23.1546 25.6541C23.2005 25.6993 23.2621 25.726 23.3271 25.729H24.4777V27.6025H23.3271C23.2667 27.6052 23.209 27.6284 23.1642 27.6681C23.1574 27.674 23.151 27.6802 23.145 27.6867C23.113 27.7178 23.0899 27.7566 23.0779 27.7991C23.0778 27.8022 23.0778 27.8053 23.0779 27.8084C23.0016 28.1643 22.8948 28.5104 22.7519 28.8388C22.7393 28.8679 22.717 28.8943 22.7039 28.9231C22.5631 29.2319 22.3982 29.5281 22.2054 29.8036C22.1722 29.8519 22.157 29.9099 22.1623 29.9678C22.1675 30.0258 22.1929 30.0802 22.2341 30.1221L23.0299 30.9277L21.6301 32.2297L20.8439 31.4241C20.8022 31.3824 20.7471 31.3558 20.6877 31.349C20.6284 31.3422 20.5685 31.3555 20.5179 31.3867C19.9588 31.7283 19.3344 31.9723 18.6675 32.108C18.6076 32.1194 18.5537 32.1509 18.5152 32.1971C18.4767 32.2433 18.4559 32.3013 18.4566 32.3609V33.4756H16.539V32.3609C16.5397 32.3013 16.519 32.2433 16.4804 32.1971C16.4419 32.1509 16.388 32.1194 16.3281 32.108C15.6612 31.9723 15.0368 31.7283 14.4777 31.3867C14.4272 31.3555 14.3672 31.3422 14.3079 31.349C14.2486 31.3558 14.1934 31.3824 14.1517 31.4241L13.3655 32.2297L11.9657 30.9277L12.7621 30.0884C12.8034 30.0465 12.8288 29.992 12.834 29.9341C12.8392 29.8762 12.824 29.8182 12.7909 29.7699C12.3765 29.178 12.0739 28.5003 11.9184 27.7747C11.9048 27.7179 11.8717 27.6674 11.8246 27.6316C11.7775 27.5958 11.7192 27.5769 11.6595 27.578H10.5193V25.6858H11.6603C11.7213 25.6864 11.7806 25.6662 11.8279 25.6285C11.8752 25.5909 11.9075 25.5382 11.9191 25.4797C12.0746 24.7543 12.369 24.0844 12.782 23.4938C12.8118 23.4484 12.826 23.3948 12.8225 23.3409C12.8191 23.2871 12.7983 23.2356 12.763 23.1941L11.9672 22.3885L13.3574 21.0864L14.1532 21.892C14.195 21.9338 14.2501 21.9603 14.3094 21.9671C14.3688 21.974 14.4287 21.9607 14.4792 21.9295C14.5011 21.9161 14.5242 21.9051 14.5463 21.892C14.5529 21.8892 14.5593 21.886 14.5655 21.8827C14.5839 21.8719 14.6045 21.8652 14.623 21.8546C15.0051 21.6355 15.4132 21.4604 15.8407 21.33C16.0018 21.2818 16.163 21.2328 16.3297 21.1989C16.3393 21.1994 16.3489 21.1994 16.3585 21.1989C16.3754 21.1912 16.3915 21.1818 16.4064 21.1708C16.4197 21.1656 16.4325 21.1593 16.4447 21.1521C16.4448 21.1489 16.4448 21.1458 16.4447 21.1427C16.4513 21.1399 16.4577 21.1367 16.4639 21.1333C16.464 21.1302 16.464 21.1271 16.4639 21.124C16.4704 21.1211 16.4768 21.118 16.4831 21.1146C16.5202 21.0695 16.5405 21.0133 16.5406 20.9554V19.8407L16.539 19.8568ZM17.4978 22.3859C15.0786 22.3859 13.1067 24.3046 13.1067 26.6667C13.1067 29.0289 15.0788 30.9475 17.4978 30.9475C19.9169 30.9475 21.8793 29.0288 21.8793 26.6667C21.8793 24.3046 19.9168 22.3859 17.4978 22.3859ZM17.4978 22.9011C19.635 22.9011 21.3617 24.5799 21.3617 26.6666C21.3617 28.7535 19.635 30.4417 17.4978 30.4417C15.3606 30.4417 13.6338 28.7536 13.6338 26.6666C13.6338 24.5798 15.3605 22.9011 17.4978 22.9011Z"/>
</mask>
<path d="M16.2708 13C15.1384 13 14.2287 13.9117 14.2287 15.014V21.2434L13.5575 20.569C13.5101 20.5213 13.4454 20.4936 13.3773 20.4918C13.3092 20.4901 13.2431 20.5144 13.1932 20.5597L11.4195 22.2083C11.3938 22.2314 11.3732 22.2593 11.3588 22.2903C11.3444 22.3214 11.3365 22.3549 11.3357 22.389C11.3348 22.423 11.3409 22.4569 11.3536 22.4887C11.3664 22.5204 11.3855 22.5493 11.4099 22.5736L12.244 23.426C11.8917 23.9705 11.6383 24.573 11.477 25.2152H10.2595C10.224 25.2154 10.189 25.2226 10.1565 25.2364C10.1241 25.2503 10.0948 25.2704 10.0706 25.2957C10.0464 25.3209 10.0276 25.3507 10.0156 25.3833C10.0035 25.4158 9.99837 25.4504 10.0005 25.4849V27.883C10.001 27.9499 10.0284 28.0139 10.0768 28.0613C10.1253 28.1086 10.1908 28.1354 10.2593 28.1359H11.477C11.6393 28.7763 11.902 29.3737 12.2536 29.9157L11.4099 30.7775C11.3636 30.8263 11.3387 30.8908 11.3405 30.9574C11.3422 31.0239 11.3706 31.0871 11.4194 31.1334L13.1932 32.7914C13.2431 32.8367 13.3092 32.861 13.3773 32.8593C13.4454 32.8575 13.51 32.8299 13.5575 32.7821L14.4012 31.9297C14.9004 32.2117 15.4374 32.4285 16.012 32.5667V33.7469C16.0122 33.7809 16.0194 33.8144 16.0331 33.8456C16.0468 33.8768 16.0667 33.905 16.0917 33.9286C16.1167 33.9522 16.1463 33.9706 16.1787 33.9828C16.2111 33.9951 16.2457 34.0009 16.2804 33.9999H18.7157C18.7505 34.0009 18.785 33.9951 18.8174 33.9828C18.8498 33.9706 18.8794 33.9522 18.9044 33.9286C18.9294 33.905 18.9494 33.8768 18.9631 33.8456C18.9768 33.8144 18.9839 33.7809 18.9842 33.7469V32.5667C19.5587 32.4285 20.0957 32.2117 20.5949 31.9297L21.4387 32.7821C21.4861 32.8299 21.5508 32.8575 21.6189 32.8593C21.687 32.861 21.753 32.8367 21.803 32.7914L23.5767 31.1334C23.6256 31.0871 23.6539 31.0239 23.6557 30.9574C23.6575 30.8908 23.6326 30.8263 23.5863 30.7775L22.8868 30.0581H35.2647C36.2101 30.0581 36.9809 29.3155 36.9809 28.3907V28.2782C36.9877 28.2017 36.9905 28.1296 36.9905 28.0627V17.6181C36.9937 17.6162 36.9969 17.6142 37 17.6121V15.0361C37 13.9331 36.0779 13.0409 34.9482 13.0409H23.1361C23.0648 13.0344 22.9966 13.0316 22.9251 13.0316H16.2711L16.2708 13ZM16.2708 13.5152H22.9249C22.9281 13.5153 22.9313 13.5153 22.9345 13.5152C22.9853 13.5155 23.0362 13.5193 23.0879 13.5246C23.0911 13.5249 23.0943 13.5243 23.0975 13.5246C23.1493 13.5301 23.1985 13.5424 23.2509 13.5527C23.2541 13.5533 23.2573 13.5521 23.2605 13.5527C23.3688 13.5743 23.4783 13.6064 23.5865 13.6463C23.7002 13.6879 23.8121 13.7368 23.9221 13.7962C24.0298 13.8541 24.1281 13.9205 24.2289 13.9929C24.2311 13.9944 24.2363 13.9914 24.2385 13.9929C24.5382 14.2094 24.8007 14.487 24.9767 14.7891C25.0355 14.8905 25.0823 14.992 25.1205 15.0982L25.4177 15.9225C25.4298 15.9575 25.4494 15.9894 25.4753 16.0162C25.4785 16.0163 25.4817 16.0163 25.4849 16.0162C25.4878 16.0226 25.491 16.0288 25.4944 16.0349C25.4976 16.035 25.5008 16.035 25.504 16.0349C25.5071 16.0381 25.5103 16.0413 25.5136 16.0443C25.5168 16.0444 25.52 16.0444 25.5232 16.0443C25.5261 16.0507 25.5293 16.0569 25.5328 16.063C25.536 16.0631 25.5392 16.0631 25.5424 16.063C25.5455 16.0662 25.5487 16.0694 25.552 16.0724C25.5552 16.0725 25.5584 16.0725 25.5616 16.0724C25.5678 16.0758 25.5742 16.0789 25.5807 16.0817C25.5839 16.0818 25.5871 16.0818 25.5903 16.0817C25.5966 16.0851 25.603 16.0882 25.6095 16.0911C25.6127 16.0912 25.6159 16.0912 25.6191 16.0911C25.6223 16.0912 25.6255 16.0912 25.6287 16.0911C25.6319 16.0912 25.6351 16.0912 25.6383 16.0911C25.6447 16.0913 25.651 16.0913 25.6574 16.0911C25.6606 16.0912 25.6638 16.0912 25.667 16.0911H34.948C34.9977 16.0914 35.0433 16.0957 35.0918 16.1004C35.095 16.1007 35.0982 16.1001 35.1014 16.1004C35.1499 16.1054 35.1982 16.1193 35.2452 16.1285C35.2483 16.1291 35.2518 16.1279 35.2548 16.1285C35.3516 16.1481 35.4438 16.1766 35.5329 16.2128C35.6274 16.2509 35.7178 16.2891 35.8013 16.344C36.1276 16.557 36.3623 16.891 36.4437 17.2807C36.4537 17.3294 36.4578 17.3802 36.4629 17.4306C36.4681 17.481 36.4725 17.5286 36.4725 17.5805C36.4719 17.5898 36.4719 17.5992 36.4725 17.6086V28.0531C36.4725 28.126 36.469 28.1852 36.4629 28.2405C36.4624 28.2499 36.4624 28.2593 36.4629 28.2687V28.3811C36.4629 29.0309 35.9324 29.5426 35.2644 29.5426H22.954C23.0149 29.4325 23.0727 29.3194 23.1266 29.2054C23.1521 29.1517 23.1794 29.1006 23.2033 29.0461C23.2683 28.8976 23.3229 28.7511 23.3759 28.5965C23.4298 28.441 23.4792 28.2795 23.5197 28.1188H24.7374C24.7533 28.1202 24.7694 28.1202 24.7853 28.1188C24.7951 28.1162 24.8047 28.1131 24.8141 28.1095C24.867 28.0931 24.9132 28.0607 24.946 28.0169C24.9788 27.9731 24.9964 27.9202 24.9962 27.8659V25.4679C24.9957 25.401 24.9683 25.337 24.9198 25.2896C24.8714 25.2423 24.8059 25.2155 24.7374 25.215H23.5197C23.4398 24.8968 23.3293 24.5936 23.2033 24.2971C23.2022 24.2941 23.2045 24.2902 23.2033 24.2878C23.0758 23.9888 22.9288 23.6982 22.7527 23.426L23.5868 22.5736C23.6116 22.5495 23.6312 22.5208 23.6444 22.4892C23.6639 22.4347 23.6639 22.3752 23.6444 22.3206C23.6396 22.3044 23.6331 22.2888 23.6252 22.2738C23.6194 22.264 23.613 22.2546 23.606 22.2456C23.6031 22.2393 23.5999 22.2331 23.5964 22.227C23.5932 22.227 23.59 22.227 23.5868 22.227C23.5837 22.2239 23.5805 22.2208 23.5772 22.2178C23.5773 22.2147 23.5773 22.2116 23.5772 22.2085L21.8035 20.5598C21.7973 20.5564 21.7909 20.5533 21.7843 20.5505C21.756 20.5285 21.7234 20.5126 21.6885 20.5036C21.6505 20.4948 21.6109 20.4944 21.5728 20.5026C21.5346 20.5107 21.4988 20.527 21.4679 20.5505C21.4612 20.5564 21.4548 20.5626 21.4488 20.5692C21.4456 20.5691 21.4424 20.5691 21.4392 20.5692L20.5955 21.4216C20.0981 21.1392 19.5599 20.9243 18.9847 20.7847V19.595C18.9848 19.5919 18.9848 19.5888 18.9847 19.5857C18.9823 19.5599 18.9758 19.5346 18.9655 19.5107C18.9633 19.498 18.9601 19.4855 18.9559 19.4732C18.9499 19.4667 18.9435 19.4604 18.9368 19.4545C18.9159 19.4279 18.8898 19.4057 18.8601 19.3889C18.857 19.3857 18.8538 19.3826 18.8505 19.3796C18.8474 19.3764 18.8442 19.3733 18.8409 19.3702C18.8345 19.37 18.8281 19.37 18.8217 19.3702C18.8186 19.367 18.8154 19.3639 18.8121 19.3609C18.8089 19.3608 18.8057 19.3608 18.8025 19.3609C18.7994 19.3577 18.7962 19.3546 18.793 19.3515C18.7866 19.3513 18.7802 19.3513 18.7738 19.3515C18.7706 19.3515 18.7674 19.3515 18.7642 19.3515C18.761 19.3515 18.7578 19.3515 18.7546 19.3515C18.7515 19.3483 18.7483 19.3452 18.745 19.3422C18.7386 19.342 18.7322 19.342 18.7258 19.3422H16.2809C16.2376 19.3413 16.1948 19.3509 16.1563 19.3703C16.1463 19.3759 16.1367 19.3821 16.1275 19.389C16.121 19.3919 16.1146 19.395 16.1084 19.3984C16.1083 19.4015 16.1083 19.4046 16.1084 19.4077C16.1018 19.4106 16.0954 19.4137 16.0892 19.4171C16.0891 19.4202 16.0891 19.4233 16.0892 19.4264C16.0827 19.4293 16.0763 19.4324 16.07 19.4358C16.0699 19.4389 16.0699 19.442 16.07 19.4451C16.0667 19.4481 16.0635 19.4513 16.0604 19.4545C16.0534 19.4634 16.047 19.4728 16.0412 19.4826C16.0378 19.4887 16.0346 19.4949 16.0317 19.5013C16.0316 19.5044 16.0316 19.5075 16.0317 19.5106C16.0282 19.5168 16.025 19.523 16.0221 19.5294C16.022 19.5325 16.022 19.5356 16.0221 19.5387C16.022 19.5418 16.022 19.545 16.0221 19.5481C16.0188 19.5511 16.0156 19.5542 16.0125 19.5574C16.0122 19.5637 16.0122 19.5699 16.0125 19.5762C16.0122 19.5824 16.0122 19.5887 16.0125 19.5949C16.0124 19.598 16.0124 19.6011 16.0125 19.6043V20.7845C15.9017 20.8115 15.794 20.8454 15.6865 20.8782C15.6257 20.8965 15.5642 20.9144 15.5043 20.9344C15.4235 20.962 15.3438 20.9973 15.2646 21.0281C15.2367 21.0387 15.2061 21.0452 15.1783 21.0562C15.1373 21.0728 15.0943 21.0949 15.0537 21.1124C14.9529 21.1551 14.8546 21.1958 14.7565 21.2435V15.0141C14.7565 14.1843 15.4235 13.5153 16.2714 13.5153L16.2708 13.5152ZM24.478 13.5152H29.6459C29.7523 13.5152 29.8523 13.533 29.9527 13.5527C30.0528 13.5724 30.1485 13.5996 30.2403 13.637C30.3357 13.6751 30.4242 13.7132 30.5088 13.7681C30.9167 14.0345 31.1799 14.4865 31.1799 15.0046V15.576H25.8586L25.6189 14.9297C25.5442 14.722 25.4391 14.5329 25.3121 14.3489C25.3082 14.3431 25.3065 14.336 25.3025 14.3302C25.2658 14.2777 25.2278 14.221 25.1875 14.1709C25.1793 14.1605 25.167 14.1532 25.1587 14.1428C25.1206 14.0967 25.0846 14.0463 25.0437 14.0023C25.0317 13.9891 25.0175 13.9779 25.0053 13.9648C24.9657 13.9236 24.9322 13.8822 24.8903 13.8431C24.8752 13.8286 24.8577 13.8198 24.8423 13.8056C24.8043 13.7715 24.7668 13.7349 24.7273 13.7026C24.6492 13.6374 24.5618 13.5726 24.478 13.5152V13.5152ZM31.0072 13.5152H34.9478C35.7995 13.5152 36.4723 14.1736 36.4723 15.0046V16.2598C36.096 15.8431 35.5502 15.576 34.9383 15.576H31.7073V15.0047C31.7073 14.9294 31.7061 14.8622 31.6977 14.7892C31.6902 14.7264 31.6825 14.6625 31.6689 14.6019C31.6668 14.592 31.6616 14.5835 31.6593 14.5738C31.6464 14.5203 31.6288 14.4661 31.6114 14.4145C31.4975 14.0622 31.2861 13.7535 31.0073 13.5153L31.0072 13.5152ZM16.146 14.6018V16.0631H17.4787V14.6018H16.146ZM18.7922 14.6018V16.0631H20.1249V14.6018H18.7922ZM21.4384 14.6018V16.0631H22.7807V14.6018H21.4384ZM16.539 19.8568H18.4566V20.9621C18.456 20.9715 18.456 20.9809 18.4566 20.9902C18.4565 20.9933 18.4565 20.9964 18.4566 20.9996C18.4563 21.0058 18.4563 21.0121 18.4566 21.0183C18.4597 21.0215 18.4629 21.0246 18.4661 21.0277C18.4661 21.0308 18.4661 21.0339 18.4661 21.037C18.4733 21.0568 18.483 21.0757 18.4949 21.0932C18.4948 21.0963 18.4948 21.0994 18.4949 21.1026C18.498 21.1058 18.5012 21.1089 18.5045 21.1119C18.5044 21.115 18.5044 21.1182 18.5045 21.1213C18.5076 21.1245 18.5108 21.1276 18.5141 21.1306C18.5172 21.1338 18.5204 21.1369 18.5237 21.14C18.5268 21.1432 18.53 21.1463 18.5333 21.1493C18.5393 21.1559 18.5457 21.1621 18.5524 21.168C18.5556 21.1681 18.5588 21.1681 18.562 21.168C18.5681 21.1746 18.5745 21.1809 18.5812 21.1868C18.5875 21.1902 18.5938 21.1933 18.6004 21.1961C18.6157 21.2039 18.6317 21.2102 18.6483 21.2149C18.6515 21.2149 18.6547 21.2149 18.6579 21.2149C18.6611 21.2149 18.6643 21.2149 18.6675 21.2149C18.9999 21.2825 19.3193 21.3823 19.6263 21.5053C19.629 21.5065 19.6331 21.5041 19.6359 21.5053C19.7865 21.5659 19.9325 21.6386 20.0769 21.7113C20.0795 21.7125 20.0839 21.7101 20.0865 21.7113C20.2308 21.7843 20.3705 21.8613 20.5083 21.9455C20.5107 21.947 20.5156 21.944 20.5179 21.9455C20.5209 21.9519 20.5241 21.9581 20.5275 21.9643C20.5307 21.9643 20.5339 21.9643 20.5371 21.9643C20.5434 21.9676 20.5498 21.9707 20.5563 21.9735C20.5595 21.9736 20.5627 21.9736 20.5659 21.9735C20.569 21.9767 20.5722 21.9798 20.5755 21.9828C20.5786 21.9829 20.5818 21.9829 20.585 21.9828C20.5914 21.9831 20.5978 21.9831 20.6042 21.9828C20.6074 21.9829 20.6106 21.9829 20.6138 21.9828C20.6201 21.9862 20.6265 21.9893 20.633 21.9921C20.6362 21.9922 20.6394 21.9922 20.6426 21.9921C20.7097 21.994 20.7749 21.9705 20.8247 21.9266C20.8315 21.9206 20.8379 21.9144 20.8439 21.9078L21.6301 21.1116L23.0299 22.4043L22.2341 23.2099C22.2274 23.2158 22.221 23.222 22.2149 23.2285C22.2149 23.2316 22.2149 23.2347 22.2149 23.2378C22.1833 23.2794 22.1654 23.3296 22.1636 23.3815C22.1619 23.4334 22.1765 23.4846 22.2054 23.5282C22.6183 24.1186 22.9223 24.7978 23.0779 25.5234C23.0805 25.5329 23.0837 25.5423 23.0875 25.5515C23.0904 25.5579 23.0936 25.5641 23.097 25.5701C23.1018 25.5863 23.1083 25.602 23.1162 25.6169C23.1223 25.6235 23.1287 25.6297 23.1354 25.6355C23.1353 25.6386 23.1353 25.6417 23.1354 25.6448C23.1416 25.6482 23.148 25.6513 23.1546 25.6541C23.2005 25.6993 23.2621 25.726 23.3271 25.729H24.4777V27.6025H23.3271C23.2667 27.6052 23.209 27.6284 23.1642 27.6681C23.1574 27.674 23.151 27.6802 23.145 27.6867C23.113 27.7178 23.0899 27.7566 23.0779 27.7991C23.0778 27.8022 23.0778 27.8053 23.0779 27.8084C23.0016 28.1643 22.8948 28.5104 22.7519 28.8388C22.7393 28.8679 22.717 28.8943 22.7039 28.9231C22.5631 29.2319 22.3982 29.5281 22.2054 29.8036C22.1722 29.8519 22.157 29.9099 22.1623 29.9678C22.1675 30.0258 22.1929 30.0802 22.2341 30.1221L23.0299 30.9277L21.6301 32.2297L20.8439 31.4241C20.8022 31.3824 20.7471 31.3558 20.6877 31.349C20.6284 31.3422 20.5685 31.3555 20.5179 31.3867C19.9588 31.7283 19.3344 31.9723 18.6675 32.108C18.6076 32.1194 18.5537 32.1509 18.5152 32.1971C18.4767 32.2433 18.4559 32.3013 18.4566 32.3609V33.4756H16.539V32.3609C16.5397 32.3013 16.519 32.2433 16.4804 32.1971C16.4419 32.1509 16.388 32.1194 16.3281 32.108C15.6612 31.9723 15.0368 31.7283 14.4777 31.3867C14.4272 31.3555 14.3672 31.3422 14.3079 31.349C14.2486 31.3558 14.1934 31.3824 14.1517 31.4241L13.3655 32.2297L11.9657 30.9277L12.7621 30.0884C12.8034 30.0465 12.8288 29.992 12.834 29.9341C12.8392 29.8762 12.824 29.8182 12.7909 29.7699C12.3765 29.178 12.0739 28.5003 11.9184 27.7747C11.9048 27.7179 11.8717 27.6674 11.8246 27.6316C11.7775 27.5958 11.7192 27.5769 11.6595 27.578H10.5193V25.6858H11.6603C11.7213 25.6864 11.7806 25.6662 11.8279 25.6285C11.8752 25.5909 11.9075 25.5382 11.9191 25.4797C12.0746 24.7543 12.369 24.0844 12.782 23.4938C12.8118 23.4484 12.826 23.3948 12.8225 23.3409C12.8191 23.2871 12.7983 23.2356 12.763 23.1941L11.9672 22.3885L13.3574 21.0864L14.1532 21.892C14.195 21.9338 14.2501 21.9603 14.3094 21.9671C14.3688 21.974 14.4287 21.9607 14.4792 21.9295C14.5011 21.9161 14.5242 21.9051 14.5463 21.892C14.5529 21.8892 14.5593 21.886 14.5655 21.8827C14.5839 21.8719 14.6045 21.8652 14.623 21.8546C15.0051 21.6355 15.4132 21.4604 15.8407 21.33C16.0018 21.2818 16.163 21.2328 16.3297 21.1989C16.3393 21.1994 16.3489 21.1994 16.3585 21.1989C16.3754 21.1912 16.3915 21.1818 16.4064 21.1708C16.4197 21.1656 16.4325 21.1593 16.4447 21.1521C16.4448 21.1489 16.4448 21.1458 16.4447 21.1427C16.4513 21.1399 16.4577 21.1367 16.4639 21.1333C16.464 21.1302 16.464 21.1271 16.4639 21.124C16.4704 21.1211 16.4768 21.118 16.4831 21.1146C16.5202 21.0695 16.5405 21.0133 16.5406 20.9554V19.8407L16.539 19.8568ZM17.4978 22.3859C15.0786 22.3859 13.1067 24.3046 13.1067 26.6667C13.1067 29.0289 15.0788 30.9475 17.4978 30.9475C19.9169 30.9475 21.8793 29.0288 21.8793 26.6667C21.8793 24.3046 19.9168 22.3859 17.4978 22.3859ZM17.4978 22.9011C19.635 22.9011 21.3617 24.5799 21.3617 26.6666C21.3617 28.7535 19.635 30.4417 17.4978 30.4417C15.3606 30.4417 13.6338 28.7536 13.6338 26.6666C13.6338 24.5798 15.3605 22.9011 17.4978 22.9011Z" fill="#6C00FF"/>
<path d="M16.2708 13C15.1384 13 14.2287 13.9117 14.2287 15.014V21.2434L13.5575 20.569C13.5101 20.5213 13.4454 20.4936 13.3773 20.4918C13.3092 20.4901 13.2431 20.5144 13.1932 20.5597L11.4195 22.2083C11.3938 22.2314 11.3732 22.2593 11.3588 22.2903C11.3444 22.3214 11.3365 22.3549 11.3357 22.389C11.3348 22.423 11.3409 22.4569 11.3536 22.4887C11.3664 22.5204 11.3855 22.5493 11.4099 22.5736L12.244 23.426C11.8917 23.9705 11.6383 24.573 11.477 25.2152H10.2595C10.224 25.2154 10.189 25.2226 10.1565 25.2364C10.1241 25.2503 10.0948 25.2704 10.0706 25.2957C10.0464 25.3209 10.0276 25.3507 10.0156 25.3833C10.0035 25.4158 9.99837 25.4504 10.0005 25.4849V27.883C10.001 27.9499 10.0284 28.0139 10.0768 28.0613C10.1253 28.1086 10.1908 28.1354 10.2593 28.1359H11.477C11.6393 28.7763 11.902 29.3737 12.2536 29.9157L11.4099 30.7775C11.3636 30.8263 11.3387 30.8908 11.3405 30.9574C11.3422 31.0239 11.3706 31.0871 11.4194 31.1334L13.1932 32.7914C13.2431 32.8367 13.3092 32.861 13.3773 32.8593C13.4454 32.8575 13.51 32.8299 13.5575 32.7821L14.4012 31.9297C14.9004 32.2117 15.4374 32.4285 16.012 32.5667V33.7469C16.0122 33.7809 16.0194 33.8144 16.0331 33.8456C16.0468 33.8768 16.0667 33.905 16.0917 33.9286C16.1167 33.9522 16.1463 33.9706 16.1787 33.9828C16.2111 33.9951 16.2457 34.0009 16.2804 33.9999H18.7157C18.7505 34.0009 18.785 33.9951 18.8174 33.9828C18.8498 33.9706 18.8794 33.9522 18.9044 33.9286C18.9294 33.905 18.9494 33.8768 18.9631 33.8456C18.9768 33.8144 18.9839 33.7809 18.9842 33.7469V32.5667C19.5587 32.4285 20.0957 32.2117 20.5949 31.9297L21.4387 32.7821C21.4861 32.8299 21.5508 32.8575 21.6189 32.8593C21.687 32.861 21.753 32.8367 21.803 32.7914L23.5767 31.1334C23.6256 31.0871 23.6539 31.0239 23.6557 30.9574C23.6575 30.8908 23.6326 30.8263 23.5863 30.7775L22.8868 30.0581H35.2647C36.2101 30.0581 36.9809 29.3155 36.9809 28.3907V28.2782C36.9877 28.2017 36.9905 28.1296 36.9905 28.0627V17.6181C36.9937 17.6162 36.9969 17.6142 37 17.6121V15.0361C37 13.9331 36.0779 13.0409 34.9482 13.0409H23.1361C23.0648 13.0344 22.9966 13.0316 22.9251 13.0316H16.2711L16.2708 13ZM16.2708 13.5152H22.9249C22.9281 13.5153 22.9313 13.5153 22.9345 13.5152C22.9853 13.5155 23.0362 13.5193 23.0879 13.5246C23.0911 13.5249 23.0943 13.5243 23.0975 13.5246C23.1493 13.5301 23.1985 13.5424 23.2509 13.5527C23.2541 13.5533 23.2573 13.5521 23.2605 13.5527C23.3688 13.5743 23.4783 13.6064 23.5865 13.6463C23.7002 13.6879 23.8121 13.7368 23.9221 13.7962C24.0298 13.8541 24.1281 13.9205 24.2289 13.9929C24.2311 13.9944 24.2363 13.9914 24.2385 13.9929C24.5382 14.2094 24.8007 14.487 24.9767 14.7891C25.0355 14.8905 25.0823 14.992 25.1205 15.0982L25.4177 15.9225C25.4298 15.9575 25.4494 15.9894 25.4753 16.0162C25.4785 16.0163 25.4817 16.0163 25.4849 16.0162C25.4878 16.0226 25.491 16.0288 25.4944 16.0349C25.4976 16.035 25.5008 16.035 25.504 16.0349C25.5071 16.0381 25.5103 16.0413 25.5136 16.0443C25.5168 16.0444 25.52 16.0444 25.5232 16.0443C25.5261 16.0507 25.5293 16.0569 25.5328 16.063C25.536 16.0631 25.5392 16.0631 25.5424 16.063C25.5455 16.0662 25.5487 16.0694 25.552 16.0724C25.5552 16.0725 25.5584 16.0725 25.5616 16.0724C25.5678 16.0758 25.5742 16.0789 25.5807 16.0817C25.5839 16.0818 25.5871 16.0818 25.5903 16.0817C25.5966 16.0851 25.603 16.0882 25.6095 16.0911C25.6127 16.0912 25.6159 16.0912 25.6191 16.0911C25.6223 16.0912 25.6255 16.0912 25.6287 16.0911C25.6319 16.0912 25.6351 16.0912 25.6383 16.0911C25.6447 16.0913 25.651 16.0913 25.6574 16.0911C25.6606 16.0912 25.6638 16.0912 25.667 16.0911H34.948C34.9977 16.0914 35.0433 16.0957 35.0918 16.1004C35.095 16.1007 35.0982 16.1001 35.1014 16.1004C35.1499 16.1054 35.1982 16.1193 35.2452 16.1285C35.2483 16.1291 35.2518 16.1279 35.2548 16.1285C35.3516 16.1481 35.4438 16.1766 35.5329 16.2128C35.6274 16.2509 35.7178 16.2891 35.8013 16.344C36.1276 16.557 36.3623 16.891 36.4437 17.2807C36.4537 17.3294 36.4578 17.3802 36.4629 17.4306C36.4681 17.481 36.4725 17.5286 36.4725 17.5805C36.4719 17.5898 36.4719 17.5992 36.4725 17.6086V28.0531C36.4725 28.126 36.469 28.1852 36.4629 28.2405C36.4624 28.2499 36.4624 28.2593 36.4629 28.2687V28.3811C36.4629 29.0309 35.9324 29.5426 35.2644 29.5426H22.954C23.0149 29.4325 23.0727 29.3194 23.1266 29.2054C23.1521 29.1517 23.1794 29.1006 23.2033 29.0461C23.2683 28.8976 23.3229 28.7511 23.3759 28.5965C23.4298 28.441 23.4792 28.2795 23.5197 28.1188H24.7374C24.7533 28.1202 24.7694 28.1202 24.7853 28.1188C24.7951 28.1162 24.8047 28.1131 24.8141 28.1095C24.867 28.0931 24.9132 28.0607 24.946 28.0169C24.9788 27.9731 24.9964 27.9202 24.9962 27.8659V25.4679C24.9957 25.401 24.9683 25.337 24.9198 25.2896C24.8714 25.2423 24.8059 25.2155 24.7374 25.215H23.5197C23.4398 24.8968 23.3293 24.5936 23.2033 24.2971C23.2022 24.2941 23.2045 24.2902 23.2033 24.2878C23.0758 23.9888 22.9288 23.6982 22.7527 23.426L23.5868 22.5736C23.6116 22.5495 23.6312 22.5208 23.6444 22.4892C23.6639 22.4347 23.6639 22.3752 23.6444 22.3206C23.6396 22.3044 23.6331 22.2888 23.6252 22.2738C23.6194 22.264 23.613 22.2546 23.606 22.2456C23.6031 22.2393 23.5999 22.2331 23.5964 22.227C23.5932 22.227 23.59 22.227 23.5868 22.227C23.5837 22.2239 23.5805 22.2208 23.5772 22.2178C23.5773 22.2147 23.5773 22.2116 23.5772 22.2085L21.8035 20.5598C21.7973 20.5564 21.7909 20.5533 21.7843 20.5505C21.756 20.5285 21.7234 20.5126 21.6885 20.5036C21.6505 20.4948 21.6109 20.4944 21.5728 20.5026C21.5346 20.5107 21.4988 20.527 21.4679 20.5505C21.4612 20.5564 21.4548 20.5626 21.4488 20.5692C21.4456 20.5691 21.4424 20.5691 21.4392 20.5692L20.5955 21.4216C20.0981 21.1392 19.5599 20.9243 18.9847 20.7847V19.595C18.9848 19.5919 18.9848 19.5888 18.9847 19.5857C18.9823 19.5599 18.9758 19.5346 18.9655 19.5107C18.9633 19.498 18.9601 19.4855 18.9559 19.4732C18.9499 19.4667 18.9435 19.4604 18.9368 19.4545C18.9159 19.4279 18.8898 19.4057 18.8601 19.3889C18.857 19.3857 18.8538 19.3826 18.8505 19.3796C18.8474 19.3764 18.8442 19.3733 18.8409 19.3702C18.8345 19.37 18.8281 19.37 18.8217 19.3702C18.8186 19.367 18.8154 19.3639 18.8121 19.3609C18.8089 19.3608 18.8057 19.3608 18.8025 19.3609C18.7994 19.3577 18.7962 19.3546 18.793 19.3515C18.7866 19.3513 18.7802 19.3513 18.7738 19.3515C18.7706 19.3515 18.7674 19.3515 18.7642 19.3515C18.761 19.3515 18.7578 19.3515 18.7546 19.3515C18.7515 19.3483 18.7483 19.3452 18.745 19.3422C18.7386 19.342 18.7322 19.342 18.7258 19.3422H16.2809C16.2376 19.3413 16.1948 19.3509 16.1563 19.3703C16.1463 19.3759 16.1367 19.3821 16.1275 19.389C16.121 19.3919 16.1146 19.395 16.1084 19.3984C16.1083 19.4015 16.1083 19.4046 16.1084 19.4077C16.1018 19.4106 16.0954 19.4137 16.0892 19.4171C16.0891 19.4202 16.0891 19.4233 16.0892 19.4264C16.0827 19.4293 16.0763 19.4324 16.07 19.4358C16.0699 19.4389 16.0699 19.442 16.07 19.4451C16.0667 19.4481 16.0635 19.4513 16.0604 19.4545C16.0534 19.4634 16.047 19.4728 16.0412 19.4826C16.0378 19.4887 16.0346 19.4949 16.0317 19.5013C16.0316 19.5044 16.0316 19.5075 16.0317 19.5106C16.0282 19.5168 16.025 19.523 16.0221 19.5294C16.022 19.5325 16.022 19.5356 16.0221 19.5387C16.022 19.5418 16.022 19.545 16.0221 19.5481C16.0188 19.5511 16.0156 19.5542 16.0125 19.5574C16.0122 19.5637 16.0122 19.5699 16.0125 19.5762C16.0122 19.5824 16.0122 19.5887 16.0125 19.5949C16.0124 19.598 16.0124 19.6011 16.0125 19.6043V20.7845C15.9017 20.8115 15.794 20.8454 15.6865 20.8782C15.6257 20.8965 15.5642 20.9144 15.5043 20.9344C15.4235 20.962 15.3438 20.9973 15.2646 21.0281C15.2367 21.0387 15.2061 21.0452 15.1783 21.0562C15.1373 21.0728 15.0943 21.0949 15.0537 21.1124C14.9529 21.1551 14.8546 21.1958 14.7565 21.2435V15.0141C14.7565 14.1843 15.4235 13.5153 16.2714 13.5153L16.2708 13.5152ZM24.478 13.5152H29.6459C29.7523 13.5152 29.8523 13.533 29.9527 13.5527C30.0528 13.5724 30.1485 13.5996 30.2403 13.637C30.3357 13.6751 30.4242 13.7132 30.5088 13.7681C30.9167 14.0345 31.1799 14.4865 31.1799 15.0046V15.576H25.8586L25.6189 14.9297C25.5442 14.722 25.4391 14.5329 25.3121 14.3489C25.3082 14.3431 25.3065 14.336 25.3025 14.3302C25.2658 14.2777 25.2278 14.221 25.1875 14.1709C25.1793 14.1605 25.167 14.1532 25.1587 14.1428C25.1206 14.0967 25.0846 14.0463 25.0437 14.0023C25.0317 13.9891 25.0175 13.9779 25.0053 13.9648C24.9657 13.9236 24.9322 13.8822 24.8903 13.8431C24.8752 13.8286 24.8577 13.8198 24.8423 13.8056C24.8043 13.7715 24.7668 13.7349 24.7273 13.7026C24.6492 13.6374 24.5618 13.5726 24.478 13.5152V13.5152ZM31.0072 13.5152H34.9478C35.7995 13.5152 36.4723 14.1736 36.4723 15.0046V16.2598C36.096 15.8431 35.5502 15.576 34.9383 15.576H31.7073V15.0047C31.7073 14.9294 31.7061 14.8622 31.6977 14.7892C31.6902 14.7264 31.6825 14.6625 31.6689 14.6019C31.6668 14.592 31.6616 14.5835 31.6593 14.5738C31.6464 14.5203 31.6288 14.4661 31.6114 14.4145C31.4975 14.0622 31.2861 13.7535 31.0073 13.5153L31.0072 13.5152ZM16.146 14.6018V16.0631H17.4787V14.6018H16.146ZM18.7922 14.6018V16.0631H20.1249V14.6018H18.7922ZM21.4384 14.6018V16.0631H22.7807V14.6018H21.4384ZM16.539 19.8568H18.4566V20.9621C18.456 20.9715 18.456 20.9809 18.4566 20.9902C18.4565 20.9933 18.4565 20.9964 18.4566 20.9996C18.4563 21.0058 18.4563 21.0121 18.4566 21.0183C18.4597 21.0215 18.4629 21.0246 18.4661 21.0277C18.4661 21.0308 18.4661 21.0339 18.4661 21.037C18.4733 21.0568 18.483 21.0757 18.4949 21.0932C18.4948 21.0963 18.4948 21.0994 18.4949 21.1026C18.498 21.1058 18.5012 21.1089 18.5045 21.1119C18.5044 21.115 18.5044 21.1182 18.5045 21.1213C18.5076 21.1245 18.5108 21.1276 18.5141 21.1306C18.5172 21.1338 18.5204 21.1369 18.5237 21.14C18.5268 21.1432 18.53 21.1463 18.5333 21.1493C18.5393 21.1559 18.5457 21.1621 18.5524 21.168C18.5556 21.1681 18.5588 21.1681 18.562 21.168C18.5681 21.1746 18.5745 21.1809 18.5812 21.1868C18.5875 21.1902 18.5938 21.1933 18.6004 21.1961C18.6157 21.2039 18.6317 21.2102 18.6483 21.2149C18.6515 21.2149 18.6547 21.2149 18.6579 21.2149C18.6611 21.2149 18.6643 21.2149 18.6675 21.2149C18.9999 21.2825 19.3193 21.3823 19.6263 21.5053C19.629 21.5065 19.6331 21.5041 19.6359 21.5053C19.7865 21.5659 19.9325 21.6386 20.0769 21.7113C20.0795 21.7125 20.0839 21.7101 20.0865 21.7113C20.2308 21.7843 20.3705 21.8613 20.5083 21.9455C20.5107 21.947 20.5156 21.944 20.5179 21.9455C20.5209 21.9519 20.5241 21.9581 20.5275 21.9643C20.5307 21.9643 20.5339 21.9643 20.5371 21.9643C20.5434 21.9676 20.5498 21.9707 20.5563 21.9735C20.5595 21.9736 20.5627 21.9736 20.5659 21.9735C20.569 21.9767 20.5722 21.9798 20.5755 21.9828C20.5786 21.9829 20.5818 21.9829 20.585 21.9828C20.5914 21.9831 20.5978 21.9831 20.6042 21.9828C20.6074 21.9829 20.6106 21.9829 20.6138 21.9828C20.6201 21.9862 20.6265 21.9893 20.633 21.9921C20.6362 21.9922 20.6394 21.9922 20.6426 21.9921C20.7097 21.994 20.7749 21.9705 20.8247 21.9266C20.8315 21.9206 20.8379 21.9144 20.8439 21.9078L21.6301 21.1116L23.0299 22.4043L22.2341 23.2099C22.2274 23.2158 22.221 23.222 22.2149 23.2285C22.2149 23.2316 22.2149 23.2347 22.2149 23.2378C22.1833 23.2794 22.1654 23.3296 22.1636 23.3815C22.1619 23.4334 22.1765 23.4846 22.2054 23.5282C22.6183 24.1186 22.9223 24.7978 23.0779 25.5234C23.0805 25.5329 23.0837 25.5423 23.0875 25.5515C23.0904 25.5579 23.0936 25.5641 23.097 25.5701C23.1018 25.5863 23.1083 25.602 23.1162 25.6169C23.1223 25.6235 23.1287 25.6297 23.1354 25.6355C23.1353 25.6386 23.1353 25.6417 23.1354 25.6448C23.1416 25.6482 23.148 25.6513 23.1546 25.6541C23.2005 25.6993 23.2621 25.726 23.3271 25.729H24.4777V27.6025H23.3271C23.2667 27.6052 23.209 27.6284 23.1642 27.6681C23.1574 27.674 23.151 27.6802 23.145 27.6867C23.113 27.7178 23.0899 27.7566 23.0779 27.7991C23.0778 27.8022 23.0778 27.8053 23.0779 27.8084C23.0016 28.1643 22.8948 28.5104 22.7519 28.8388C22.7393 28.8679 22.717 28.8943 22.7039 28.9231C22.5631 29.2319 22.3982 29.5281 22.2054 29.8036C22.1722 29.8519 22.157 29.9099 22.1623 29.9678C22.1675 30.0258 22.1929 30.0802 22.2341 30.1221L23.0299 30.9277L21.6301 32.2297L20.8439 31.4241C20.8022 31.3824 20.7471 31.3558 20.6877 31.349C20.6284 31.3422 20.5685 31.3555 20.5179 31.3867C19.9588 31.7283 19.3344 31.9723 18.6675 32.108C18.6076 32.1194 18.5537 32.1509 18.5152 32.1971C18.4767 32.2433 18.4559 32.3013 18.4566 32.3609V33.4756H16.539V32.3609C16.5397 32.3013 16.519 32.2433 16.4804 32.1971C16.4419 32.1509 16.388 32.1194 16.3281 32.108C15.6612 31.9723 15.0368 31.7283 14.4777 31.3867C14.4272 31.3555 14.3672 31.3422 14.3079 31.349C14.2486 31.3558 14.1934 31.3824 14.1517 31.4241L13.3655 32.2297L11.9657 30.9277L12.7621 30.0884C12.8034 30.0465 12.8288 29.992 12.834 29.9341C12.8392 29.8762 12.824 29.8182 12.7909 29.7699C12.3765 29.178 12.0739 28.5003 11.9184 27.7747C11.9048 27.7179 11.8717 27.6674 11.8246 27.6316C11.7775 27.5958 11.7192 27.5769 11.6595 27.578H10.5193V25.6858H11.6603C11.7213 25.6864 11.7806 25.6662 11.8279 25.6285C11.8752 25.5909 11.9075 25.5382 11.9191 25.4797C12.0746 24.7543 12.369 24.0844 12.782 23.4938C12.8118 23.4484 12.826 23.3948 12.8225 23.3409C12.8191 23.2871 12.7983 23.2356 12.763 23.1941L11.9672 22.3885L13.3574 21.0864L14.1532 21.892C14.195 21.9338 14.2501 21.9603 14.3094 21.9671C14.3688 21.974 14.4287 21.9607 14.4792 21.9295C14.5011 21.9161 14.5242 21.9051 14.5463 21.892C14.5529 21.8892 14.5593 21.886 14.5655 21.8827C14.5839 21.8719 14.6045 21.8652 14.623 21.8546C15.0051 21.6355 15.4132 21.4604 15.8407 21.33C16.0018 21.2818 16.163 21.2328 16.3297 21.1989C16.3393 21.1994 16.3489 21.1994 16.3585 21.1989C16.3754 21.1912 16.3915 21.1818 16.4064 21.1708C16.4197 21.1656 16.4325 21.1593 16.4447 21.1521C16.4448 21.1489 16.4448 21.1458 16.4447 21.1427C16.4513 21.1399 16.4577 21.1367 16.4639 21.1333C16.464 21.1302 16.464 21.1271 16.4639 21.124C16.4704 21.1211 16.4768 21.118 16.4831 21.1146C16.5202 21.0695 16.5405 21.0133 16.5406 20.9554V19.8407L16.539 19.8568ZM17.4978 22.3859C15.0786 22.3859 13.1067 24.3046 13.1067 26.6667C13.1067 29.0289 15.0788 30.9475 17.4978 30.9475C19.9169 30.9475 21.8793 29.0288 21.8793 26.6667C21.8793 24.3046 19.9168 22.3859 17.4978 22.3859ZM17.4978 22.9011C19.635 22.9011 21.3617 24.5799 21.3617 26.6666C21.3617 28.7535 19.635 30.4417 17.4978 30.4417C15.3606 30.4417 13.6338 28.7536 13.6338 26.6666C13.6338 24.5798 15.3605 22.9011 17.4978 22.9011Z" stroke="#6C00FF" stroke-width="0.2" mask="url(#path-1-outside-1)"/>
</svg>
