<svg width="48" height="48" viewBox="0 0 48 48" fill="none" xmlns="http://www.w3.org/2000/svg">
<path d="M16.3846 35.5752V35.6252H16.4346H30.5452H30.5952V35.5752V12V11.95H30.5452H16.4346H16.3846V12V35.5752ZM17.0498 12.6152H29.93V34.9572H17.0498V12.6152Z" fill="#6C00FF" stroke="#6C00FF" stroke-width="0.1"/>
<path d="M21.2982 14.2827H25.6815C25.8645 14.2827 26.0141 14.1331 26.0141 13.9501C26.0141 13.767 25.8645 13.6175 25.6815 13.6175H21.2982C21.1152 13.6175 20.9656 13.767 20.9656 13.9501C20.9656 14.1328 21.112 14.2827 21.2982 14.2827Z" fill="#6C00FF" stroke="#6C00FF" stroke-width="0.1"/>
<path d="M23.4884 31.3426C22.6837 31.3426 22.0311 31.9952 22.0311 32.8C22.0311 33.6048 22.6837 34.2574 23.4884 34.2574C24.2932 34.2574 24.9458 33.6048 24.9458 32.8C24.9458 31.9952 24.2932 31.3426 23.4884 31.3426ZM23.4884 33.5921C23.0526 33.5921 22.6963 33.2358 22.6963 32.8C22.6963 32.3641 23.0526 32.0078 23.4884 32.0078C23.9243 32.0078 24.2806 32.3641 24.2806 32.8C24.2806 33.2359 23.927 33.5921 23.4884 33.5921Z" fill="#6C00FF" stroke="#6C00FF" stroke-width="0.1"/>
<path d="M17.9559 30.0589V30.1089H18.0059H29.1237H29.1737V30.0589V23.5532V23.5032H29.1237H18.0059H17.9559V23.5532V30.0589ZM23.5648 26.4237L19.5561 24.1684H27.5735L23.5648 26.4237ZM23.5676 27.1884L27.5763 29.4437H19.5589L23.5676 27.1884ZM18.6211 24.4046L22.8863 26.806L18.6211 29.2075V24.4046ZM28.5113 24.4046V29.2075L24.246 26.806L28.5113 24.4046Z" fill="#6C00FF" stroke="#6C00FF" stroke-width="0.1"/>
<path d="M17.9559 22.2361V22.2861H18.0059H29.1237H29.1737V22.2361V15.7305V15.6805H29.1237H18.0059H17.9559V15.7305V22.2361ZM18.6239 16.5834L22.8891 18.9833L18.6239 21.3847V16.5834ZM23.5648 18.6009L19.5561 16.3457H27.5735L23.5648 18.6009ZM23.5676 19.3657L27.5763 21.6209H19.5589L23.5676 19.3657ZM28.5113 16.5819V21.3847L24.246 18.9833L28.5113 16.5819Z" fill="#6C00FF" stroke="#6C00FF" stroke-width="0.1"/>
<path d="M12.6928 33.306L12.6481 33.2836L12.6649 33.2502L12.6928 33.306ZM12.6928 33.306L12.7375 33.2836L12.7208 33.2502L12.6928 33.306ZM10.95 29.926V29.9378L14.4357 16.3101L14.3857 16.3099H14.4357V16.31C14.4385 15.3468 13.6558 14.5643 12.6928 14.5643C11.7326 14.5643 10.95 15.3469 10.95 16.3071V17.5534V29.926ZM13.6462 30.0325L12.6928 31.9367L11.7394 30.0325H13.6462ZM11.6152 29.3673V17.8888H13.7733V29.3673H11.6152ZM11.6152 16.3071C11.6152 15.713 12.0987 15.2295 12.6928 15.2295C13.287 15.2295 13.7704 15.713 13.7704 16.3071V17.2208H11.6152V16.3071Z" fill="#6C00FF" stroke="#6C00FF" stroke-width="0.1"/>
<path d="M32.5349 14.4144H32.4849V14.4644V33.1109V33.1609H32.5349H37.0001H37.0501V33.1109V14.4644V14.4144H37.0001H32.5349ZM33.1501 32.4957V15.0796H36.3849V16.8731H35.5079C35.3248 16.8731 35.1753 17.0226 35.1753 17.2057C35.1753 17.3887 35.3248 17.5383 35.5079 17.5383H36.3849V19.1057H34.7675C34.5844 19.1057 34.4349 19.2552 34.4349 19.4383C34.4349 19.6213 34.5844 19.7709 34.7675 19.7709H36.3849V21.3383H35.5079C35.3248 21.3383 35.1753 21.4878 35.1753 21.6709C35.1753 21.8539 35.3248 22.0035 35.5079 22.0035H36.3849V23.5709H34.7675C34.5844 23.5709 34.4349 23.7204 34.4349 23.9035C34.4349 24.0865 34.5844 24.2361 34.7675 24.2361H36.3849V25.8035H35.5079C35.3248 25.8035 35.1753 25.953 35.1753 26.1361C35.1753 26.3191 35.3248 26.4687 35.5079 26.4687H36.3849V28.0361H34.7675C34.5844 28.0361 34.4349 28.1857 34.4349 28.3687C34.4349 28.5518 34.5844 28.7013 34.7675 28.7013H36.3849V30.2687H35.5079C35.3248 30.2687 35.1753 30.4183 35.1753 30.6013C35.1753 30.7844 35.3248 30.9339 35.5079 30.9339H36.3849V32.4957H33.1501Z" fill="#6C00FF" stroke="#6C00FF" stroke-width="0.1"/>
</svg>
